<?xml version="1.0" encoding="UTF-8" standalone="no"?>
<!DOCTYPE svg PUBLIC "-//W3C//DTD SVG 1.1//EN" "http://www.w3.org/Graphics/SVG/1.1/DTD/svg11.dtd">
<svg width="100%" height="100%" viewBox="0 0 65 50" version="1.1" xmlns="http://www.w3.org/2000/svg" xmlns:xlink="http://www.w3.org/1999/xlink" xml:space="preserve" xmlns:serif="http://www.serif.com/" style="fill-rule:evenodd;clip-rule:evenodd;stroke-linejoin:round;stroke-miterlimit:2;">
    <g id="chicken" transform="matrix(0.57143,0,0,0.57143,0.207985,0)">
        <g id="path866" transform="matrix(1,0,0,1,56.6929,43.8917)">
            <path d="M-14.454,-18.709C-20.908,-23.842 -12.293,-38.533 -22.058,-42.944C-30.431,-46.465 -36.295,-39.386 -37.739,-34.628C-51.478,-25.566 -55.642,-17.896 -56.672,-11.049C-56.779,-10.342 -56.466,-10.179 -55.97,-9.701C-51.559,-16.752 -43.523,-29.604 -31.432,-31.776C-24.995,-33.01 -22.043,-30.838 -23.44,-23.375C-23.886,-20.201 -23.338,-17.325 -22.058,-14.67L-14.454,-18.709Z" style="fill-rule:nonzero;"/>
        </g>
        <g id="path868" transform="matrix(1,0,0,1,56.6929,43.8917)">
            <path d="M-14.623,-18.766C1.679,-21.457 7.892,-39.008 33.927,-26.126C39.033,-19.042 39.954,-11.687 38.319,-6.421C50.212,-10.412 55.259,-10.219 55.768,-7.252C38.631,-4.318 34.07,3.906 23.599,3.787C15.103,3.691 1.215,2.686 -6.67,0.108C-12.198,-2.078 -17.907,-2.819 -22.22,-14.73C-19.25,-15.784 -16.645,-17.081 -14.623,-18.766Z" style="fill:rgb(249,249,249);fill-rule:nonzero;"/>
        </g>
        <g id="path870" transform="matrix(1,0,0,1,56.6929,43.8917)">
            <path d="M16.285,3.537L18.81,13.975L10.728,39.399C8.082,40.908 1.425,40.171 -1.226,43.271L11.907,43.608C13.01,43.12 13.588,41.582 14.264,40.241L16.79,42.766C19.103,43.089 17.018,39.502 15.443,36.368C17.767,29.837 18.236,24.178 22.851,13.302L20.325,3.368L16.285,3.537Z" style="fill-rule:nonzero;"/>
        </g>
        <g id="path872" transform="matrix(1,0,0,1,56.6929,43.8917)">
            <path d="M34.973,0.674C41.175,11.217 43.335,21.06 43.729,32.496C44.739,39.132 49.285,40.235 51.642,40.914C48.705,37.67 46.062,34.458 47.096,31.654L50.127,31.317C46.942,28.994 45.061,24.717 44.57,18.353C44.036,12.123 43.371,5.894 38.004,-0.336L34.973,0.674Z" style="fill-rule:nonzero;"/>
        </g>
        <g id="path874" transform="matrix(1,0,0,1,56.6929,43.8917)">
            <path d="M33.29,-25.759C36.87,-27.636 47.751,-26.562 48.443,-21.719C51.218,-20.779 54.504,-20.288 53.831,-16.331L52.147,-15.994C54.007,-13.854 55.242,-12.338 56.693,-10.606C50.148,-9.303 42.745,-9.072 37.836,-5.724C39.357,-12.144 40.074,-18.027 33.29,-25.759Z" style="fill-rule:nonzero;"/>
        </g>
        <g id="path876" transform="matrix(1,0,0,1,56.6929,43.8917)">
            <path d="M-32.205,-36.535C-32.619,-36.266 -33.412,-36.354 -33.384,-37.04C-33.086,-38.479 -31.603,-40.529 -28.739,-39.358C-26.253,-37.843 -27.588,-35.554 -28.67,-34.178C-29.181,-33.879 -30.11,-34.131 -29.67,-34.951C-28.615,-37.331 -28.732,-37.312 -29.614,-38.021C-31.024,-38.974 -31.541,-37.307 -32.205,-36.535L-32.205,-36.535Z" style="fill:white;fill-rule:nonzero;"/>
        </g>
        <g id="path878" transform="matrix(1,0,0,1,56.6929,43.8917)">
            <path d="M-19.808,-15.766C-14.002,-7.921 -3.507,-3.329 8.255,-1.013C8.255,-1.013 3.648,-5.812 4.246,-4.862C5.891,-2.247 37.71,-2.55 36.959,-6.305C45.611,-8.21 54.261,-10.114 55.4,-7.428L27.979,2.675C15.471,3.627 0.558,1.764 -11.95,-1.976C-17.425,-5.172 -19.41,-10.112 -22.534,-14.484L-19.808,-15.766Z" style="fill-opacity:0.1;fill-rule:nonzero;"/>
        </g>
        <g id="path889" transform="matrix(1,0,0,1,56.6929,43.8917)">
            <path d="M-3.291,-12.72C2.696,-18.653 12.218,-26.631 31.988,-23.784L35.516,-18.492L30.865,-20.737C20.602,-23.196 9.002,-20.384 -3.291,-12.72Z" style="fill-opacity:0.1;fill-rule:nonzero;"/>
        </g>
    </g>
</svg>
