<?xml version="1.0" encoding="UTF-8" standalone="no"?>
<!DOCTYPE svg PUBLIC "-//W3C//DTD SVG 1.1//EN" "http://www.w3.org/Graphics/SVG/1.1/DTD/svg11.dtd">
<svg width="100%" height="100%" viewBox="0 0 200 100" version="1.1" xmlns="http://www.w3.org/2000/svg" xmlns:xlink="http://www.w3.org/1999/xlink" xml:space="preserve" xmlns:serif="http://www.serif.com/" style="fill-rule:evenodd;clip-rule:evenodd;stroke-linejoin:round;stroke-miterlimit:2;">
    <g transform="matrix(0.617794,0,0,0.617794,1.13687e-13,13.1515)">
        <g id="foreground">
            <g>
                <g id="mrf-inner" transform="matrix(1,0,0,1,-45.9184,-305.283)">
                    <path d="M61.909,441.181L62.706,351.317L121.849,315.352L188.984,351.717L185.658,445.862L61.909,441.181Z" style="fill:rgb(170,136,0);fill-rule:nonzero;"/>
                </g>
                <g id="mrf-inner-shadow" transform="matrix(1,0,0,1,-45.9184,-305.283)">
                    <path d="M63.255,353.559C95.55,385.774 123.658,387.808 187.545,382.172L187.545,350.429L119.141,315.556L60.572,347.299" style="fill:rgb(36,28,28);fill-opacity:0.3;fill-rule:nonzero;"/>
                </g>
                <g id="g1617" transform="matrix(1,0,0,1,-45.9184,-305.283)">
                    <path id="path922-9" d="M62.915,441.383L62.665,353.915L57.87,352.716L57.97,443.129L62.915,441.383Z" style="fill:rgb(172,167,147);fill-rule:nonzero;"/>
                    <path id="path918" d="M192.981,342.925L191.232,429.642L298.879,426.445L299.278,349.319L192.981,342.925Z" style="fill:rgb(211,188,95);fill-rule:nonzero;"/>
                    <path id="path916" d="M191.382,344.923L191.382,358.11L300.077,362.506L300.077,350.118L191.382,344.923Z" style="fill:rgb(200,171,55);fill-rule:nonzero;"/>
                    <path id="path920" d="M122.533,305.479L192.458,344.878L299.278,350.917C299.278,350.917 246.929,320.547 244.931,320.547C242.932,320.547 122.533,305.479 122.533,305.479Z" style="fill:rgb(255,204,0);fill-rule:nonzero;"/>
                    <path id="path922" d="M192.938,444.471L193.57,345.581L187.786,344.524L187.509,445.188L192.938,444.471Z" style="fill:rgb(172,167,147);fill-rule:nonzero;"/>
                    <path id="path924" d="M178.325,445.398L187.516,445.564L188.185,354.914L178.195,350.518L178.325,445.398Z" style="fill:rgb(233,221,175);fill-rule:nonzero;"/>
                    <path id="path926" d="M192.581,344.923L192.981,358.51L120.65,321.746L57.111,357.311L45.918,358.512L45.918,344.925L115.973,306.911C118.447,306.102 120.376,304.476 124.247,305.761L192.581,344.923Z" style="fill:rgb(233,221,175);fill-rule:nonzero;"/>
                    <path id="path924-2" d="M49.168,442.531L57.911,443.029L57.911,356.712L49.119,352.716L49.168,442.531Z" style="fill:rgb(233,221,175);fill-rule:nonzero;"/>
                    <path id="path926-8" d="M125.845,321.245L117.314,321.57L66.468,351.602L74.057,347.761C73.818,348.955 71.31,363.645 71.31,363.645L64.263,358.031L64.379,352.836L62.585,353.895C62.658,361.644 62.704,369.393 62.704,377.143L121.05,350.318L178.397,374.745L178.397,365.554L178.63,357.92L171.639,363.532L169.467,347.401L179.062,351.373C179.062,351.373 143.381,331.17 125.845,321.245ZM128.521,325.533L140.153,331.427L128.366,340.732C128.366,340.732 128.056,340.112 128.521,325.533ZM113.826,325.547C114.423,325.428 113.946,340.834 113.946,340.834L102.959,331.638C102.959,331.638 113.229,325.667 113.826,325.547ZM146.668,334.839L161.092,341.973L149.304,351.124L146.668,334.839ZM96.748,335.221L94.479,351.94L83.491,342.864L96.748,335.221ZM141.705,336.855L143.256,349.108L133.329,343.369L141.705,336.855ZM102.241,337.968L110.721,345.611L100.45,351.224C100.45,351.224 102.122,338.804 102.241,337.968ZM163.728,346.006L165.9,360.43L153.648,354.071L163.728,346.006ZM80.028,347.402L90.658,356.478L77.52,363.883L80.028,347.402ZM64.263,364.241L69.757,368.421L64.383,371.168L64.263,364.241Z" style="fill:rgb(233,221,175);fill-rule:nonzero;"/>
                    <path id="path1011" d="M212.463,358.113L212.062,380.388C211.966,384.947 214.738,383.767 216.858,383.894L285.191,383.301L284.51,361.377L212.463,358.113Z" style="fill:rgb(33,120,68);fill-rule:nonzero;"/>
                    <path id="path1013" d="M193.346,405.528L193.041,444.404L303.94,429.82L300.798,403.31L193.346,405.528Z" style="fill:rgb(170,136,0);fill-rule:nonzero;"/>
                </g>
                <g id="g1593" transform="matrix(1,0,0,1,-45.9184,-305.283)">
                    <path id="path912" d="M331.056,368.859L361.538,372.32L362.745,424.23L330.528,430.481L331.056,368.859Z" style="fill:rgb(170,136,0);fill-rule:nonzero;"/>
                    <path id="path904" d="M326.591,344.37C329,344.007 331.06,344.202 331.415,347.126L331.07,366.42C330.77,368.276 329.585,369.032 327.947,369.521L255.961,379.168C253.295,379.023 250.623,378.886 250.793,374.689L250.793,362.63C251.071,359.148 252.922,356.059 258.362,355.75L326.591,344.37Z" style="fill:rgb(255,230,128);fill-rule:nonzero;"/>
                    <path id="path906" d="M330.044,344.298C331.712,344.298 367.149,347.953 367.149,347.953C370.141,348.981 369.174,350.8 369.651,352.33L369.234,369.939C368.343,372.301 369.012,374.036 365.899,373.274C365.065,373.065 329.627,369.522 329.627,369.522L330.044,344.298Z" style="fill:rgb(212,170,0);fill-rule:nonzero;"/>
                    <path id="path908" d="M331.056,368.859L330.915,430.831L258.323,433.104L259.228,377.913L331.056,368.859Z" style="fill:rgb(255,204,0);fill-rule:nonzero;"/>
                    <path id="path914" d="M300.574,432.783C300.876,431.576 302.385,398.134 299.669,397.832C296.953,397.53 281.259,398.879 281.259,398.879L280.656,432.943" style="fill:rgb(120,68,33);fill-rule:nonzero;"/>
                </g>
                <g id="g1661" transform="matrix(1,0,0,1,-45.9184,-305.283)">
                    <circle id="circle1837" cx="119.498" cy="408.19" r="6.743" style="fill:rgb(55,72,69);"/>
                    <circle id="circle1839" cx="126.803" cy="407.415" r="6.743" style="fill:rgb(255,42,127);"/>
                    <circle id="circle1841" cx="136.874" cy="405.644" r="6.743" style="fill:rgb(170,68,0);"/>
                    <circle id="circle1843" cx="142.076" cy="408.743" r="6.743" style="fill:rgb(85,68,0);"/>
                    <path id="path1845" d="M128.693,409.548C132.358,409.168 149.673,408.157 149.673,408.157C152.18,410.085 150.596,411.603 149.926,413.213L128.187,415.235L128.693,409.548Z" style="fill:rgb(33,120,103);fill-rule:nonzero;"/>
                    <path id="path1847" d="M128.263,414.939L107.152,413.45L106.385,434.104L127.718,436.729L128.263,414.939Z" style="fill:rgb(147,172,167);fill-rule:nonzero;"/>
                    <path id="path1849" d="M128.263,415.211L149.557,413.304L148.807,432.933L127.864,436.514L128.263,415.211Z" style="fill:rgb(33,103,120);fill-rule:nonzero;"/>
                    <path id="path1851" d="M128.535,409.491L106.379,409.536C103.272,410.244 103.983,412.916 106.481,413.664L128.4,415.337C130.353,414.947 131.108,409.804 128.535,409.491L128.535,409.491Z" style="fill:rgb(95,211,188);fill-rule:nonzero;"/>
                    <path id="path1853" d="M108.384,415.008L107.973,433.973L108.897,433.789L109.135,425.25C111.744,425.485 115.071,426.08 116.219,425.585L109.157,424.312L109.546,416.139C112.868,416.417 116.159,416.681 117.454,416.013L108.384,415.008Z" style="fill:rgb(33,103,120);fill-rule:nonzero;"/>
                    <path id="path1855" d="M117.331,416L116.92,434.965L117.637,435.04L117.869,426.416C120.76,426.65 124.429,427.309 126.098,426.877L117.897,425.396L118.13,416.716C121.267,416.865 128.556,417.963 126.401,417.005L117.331,416Z" style="fill:rgb(33,103,120);fill-rule:nonzero;"/>
                </g>
                <g id="g1639" transform="matrix(1,0,0,1,-45.9184,-305.283)">
                    <circle id="path1793" cx="83.728" cy="414.819" r="6.743" style="fill:rgb(55,72,69);"/>
                    <circle id="circle1831" cx="91.033" cy="414.044" r="6.743" style="fill:rgb(255,42,127);"/>
                    <circle id="circle1833" cx="101.105" cy="412.273" r="6.743" style="fill:rgb(170,68,0);"/>
                    <circle id="circle1835" cx="106.306" cy="415.372" r="6.743" style="fill:rgb(85,68,0);"/>
                    <path id="path1757" d="M92.923,416.176C96.588,415.797 113.903,414.786 113.903,414.786C116.41,416.713 114.826,418.232 114.156,419.841L92.418,421.864L92.923,416.176Z" style="fill:rgb(33,120,103);fill-rule:nonzero;"/>
                    <path id="path1751" d="M92.493,421.567L71.382,420.079L70.615,440.732L91.949,443.358L92.493,421.567Z" style="fill:rgb(147,172,167);fill-rule:nonzero;"/>
                    <path id="path1755" d="M92.493,421.84L113.787,419.933L113.038,439.562L92.095,443.142L92.493,421.84Z" style="fill:rgb(33,103,120);fill-rule:nonzero;"/>
                    <path id="path1753" d="M92.766,416.119L70.609,416.165C67.502,416.873 68.213,419.545 70.711,420.292L92.631,421.966C94.584,421.576 95.339,416.433 92.766,416.119L92.766,416.119Z" style="fill:rgb(95,211,188);fill-rule:nonzero;"/>
                    <path id="path1759" d="M72.614,421.637L72.203,440.602L73.128,440.418L73.366,431.878C75.974,432.114 79.302,432.709 80.45,432.214L73.388,430.941L73.777,422.767C77.098,423.046 80.39,423.309 81.684,422.642L72.614,421.637Z" style="fill:rgb(33,103,120);fill-rule:nonzero;"/>
                    <path id="path1759-6" d="M81.561,422.629L81.15,441.593L81.867,441.669L82.099,433.045C84.99,433.279 88.659,433.938 90.328,433.506L82.127,432.025L82.361,423.344C85.498,423.494 92.787,424.592 90.631,423.633L81.561,422.629Z" style="fill:rgb(33,103,120);fill-rule:nonzero;"/>
                </g>
            </g>
        </g>
    </g>
</svg>
