<?xml version="1.0" encoding="UTF-8" standalone="no"?>
<!DOCTYPE svg PUBLIC "-//W3C//DTD SVG 1.1//EN" "http://www.w3.org/Graphics/SVG/1.1/DTD/svg11.dtd">
<svg width="100%" height="100%" viewBox="0 0 200 100" version="1.1" xmlns="http://www.w3.org/2000/svg" xmlns:xlink="http://www.w3.org/1999/xlink" xml:space="preserve" xmlns:serif="http://www.serif.com/" style="fill-rule:evenodd;clip-rule:evenodd;">
    <g transform="matrix(0.525374,0,0,0.525374,-397.954,-143.408)">
        <g id="foreground">
            <g>
                <g id="g1976" transform="matrix(1,0,0,1,-22,0)">
                    <path id="path2331" d="M1145.05,441.63L1145.45,351.317L1086.31,315.352L1019.17,351.717L1022.5,445.862L1145.05,441.63Z" style="fill:rgb(128,51,0);fill-rule:nonzero;"/>
                    <path id="path2333" d="M1144.29,439.774C1098.93,434.768 1103.38,384.375 1071.73,334.418L1089.02,315.556L1147.59,347.299" style="fill:rgb(212,170,0);fill-opacity:0.3;fill-rule:nonzero;"/>
                    <path id="path2335" d="M1145.09,443.029C1144.69,441.43 1145.49,353.915 1145.49,353.915L1150.29,352.716L1149.89,443.428L1145.09,443.029Z" style="fill:rgb(205,222,135);fill-rule:nonzero;"/>
                    <path id="path2337" d="M1015.18,342.925L1015.16,443.784L909.279,426.445L908.879,349.319L1015.18,342.925Z" style="fill:rgb(238,255,170);fill-rule:nonzero;"/>
                    <path id="path2353" d="M995.695,358.113L996.096,380.388C996.192,384.947 993.42,383.767 991.3,383.894L922.967,383.301L923.648,361.377L995.695,358.113Z" style="fill:rgb(170,255,238);fill-rule:nonzero;"/>
                    <path id="path2339" d="M1016.78,344.923L1016.78,358.11L908.528,358.921L908.08,350.118L1016.78,344.923Z" style="fill:rgb(205,222,135);fill-rule:nonzero;"/>
                    <path id="path2341" d="M1085.62,305.479L1015.7,344.878L908.301,350.277L963.227,320.547L1085.62,305.479Z" style="fill:rgb(170,222,135);fill-rule:nonzero;"/>
                    <path id="path2343" d="M1015.24,444.932L1015.58,345.722L1020.37,344.524L1022.14,445.246L1015.24,444.932Z" style="fill:rgb(221,233,175);fill-rule:nonzero;"/>
                    <path id="path2345" d="M1029.83,445.398L1021.95,446.046L1019.97,354.914L1029.96,350.518L1029.83,445.398Z" style="fill:rgb(171,200,55);fill-rule:nonzero;"/>
                    <path id="path2347" d="M1015.58,344.923L1015.18,358.51L1087.51,321.746L1151.05,357.311L1160.15,358.422L1159.77,346.363L1092.18,306.911C1089.71,306.102 1087.78,304.476 1083.91,305.761L1015.58,344.923Z" style="fill:rgb(171,200,55);fill-rule:nonzero;"/>
                    <path id="path2349" d="M1156.76,443.428L1150.25,443.029L1150.25,354.802L1156.37,356.154L1156.76,443.428Z" style="fill:rgb(171,200,55);fill-rule:nonzero;"/>
                    <path id="path2351" d="M1082.31,321.245L1090.84,321.57L1141.69,351.602L1134.1,347.761C1134.34,348.955 1136.85,363.645 1136.85,363.645L1143.89,358.031L1143.78,352.836L1145.57,353.895C1145.5,361.644 1145.45,369.393 1145.45,377.143L1087.11,350.318L1029.76,374.745L1029.76,365.554L1029.53,357.92L1036.52,363.532L1038.69,347.401L1029.34,351.868L1029.32,351.237L1082.31,321.245ZM1079.64,325.533L1068,331.427L1079.79,340.732C1079.79,340.732 1080.1,340.112 1079.64,325.533ZM1094.33,325.547C1093.74,325.428 1094.21,340.834 1094.21,340.834L1105.2,331.638C1105.2,331.638 1094.93,325.667 1094.33,325.547ZM1061.49,334.839L1047.07,341.973L1058.85,351.124L1061.49,334.839ZM1111.41,335.221L1113.68,351.94L1124.67,342.864L1111.41,335.221ZM1066.45,336.855L1064.9,349.108L1074.83,343.369L1066.45,336.855ZM1105.92,337.968L1097.44,345.611L1107.71,351.224C1107.71,351.224 1106.04,338.804 1105.92,337.968ZM1044.43,346.006L1042.26,360.43L1054.51,354.071L1044.43,346.006ZM1128.13,347.402L1117.5,356.478L1130.64,363.883L1128.13,347.402ZM1143.89,364.241L1138.4,368.421L1143.78,371.168L1143.89,364.241Z" style="fill:rgb(171,200,55);fill-rule:nonzero;"/>
                    <path id="path2355" d="M1014.81,405.528L1015.12,444.404L907.987,427.034L909.014,404.511L1014.81,405.528Z" style="fill:rgb(221,233,175);fill-rule:nonzero;"/>
                    <g id="circle2367" transform="matrix(-1,0,0,1,0,0)">
                        <circle cx="-1090.66" cy="410.19" r="6.743" style="fill:rgb(212,85,0);"/>
                    </g>
                    <g id="circle2369" transform="matrix(-1,0,0,1,0,0)">
                        <circle cx="-1083.36" cy="409.415" r="6.743" style="fill:rgb(136,170,0);"/>
                    </g>
                    <g id="circle2371" transform="matrix(-1,0,0,1,0,0)">
                        <circle cx="-1073.28" cy="407.644" r="6.743" style="fill:rgb(170,68,0);"/>
                    </g>
                    <g id="circle2373" transform="matrix(-1,0,0,1,0,0)">
                        <circle cx="-1068.08" cy="410.743" r="6.743" style="fill:rgb(85,68,0);"/>
                    </g>
                    <path id="path2413" d="M1081.46,411.548C1077.8,411.168 1060.49,410.157 1060.49,410.157C1057.98,412.085 1059.56,413.603 1060.23,415.213L1081.97,417.235L1081.46,411.548Z" style="fill:rgb(33,120,103);fill-rule:nonzero;"/>
                    <path id="path2415" d="M1081.89,416.939L1103.01,415.45L1103.77,436.104L1082.44,438.729L1081.89,416.939Z" style="fill:rgb(147,172,167);fill-rule:nonzero;"/>
                    <path id="path2417" d="M1081.89,417.211L1060.6,415.304L1061.35,434.933L1082.29,438.514L1081.89,417.211Z" style="fill:rgb(33,103,120);fill-rule:nonzero;"/>
                    <path id="path2419" d="M1081.62,411.491L1103.78,411.536C1106.89,412.244 1106.17,414.916 1103.68,415.664L1081.76,417.337C1079.81,416.947 1079.05,411.804 1081.62,411.491L1081.62,411.491Z" style="fill:rgb(95,211,188);fill-rule:nonzero;"/>
                    <path id="path2421" d="M1101.77,417.008L1102.18,435.973L1101.26,435.789L1101.02,427.25C1098.41,427.485 1095.09,428.08 1093.94,427.585L1101,426.312L1100.61,418.139C1097.29,418.417 1094,418.681 1092.7,418.013L1101.77,417.008Z" style="fill:rgb(33,103,120);fill-rule:nonzero;"/>
                    <path id="path2423" d="M1092.83,418L1093.24,436.965L1092.52,437.04L1092.29,428.416C1089.4,428.65 1085.73,429.309 1084.06,428.877L1092.26,427.396L1092.03,418.716C1088.89,418.865 1081.6,419.963 1083.76,419.005L1092.83,418Z" style="fill:rgb(33,103,120);fill-rule:nonzero;"/>
                    <g id="circle2359" transform="matrix(-1,0,0,1,0,0)">
                        <circle cx="-1126.43" cy="412.819" r="6.743" style="fill:rgb(102,128,0);"/>
                    </g>
                    <g id="circle2363" transform="matrix(-1,0,0,1,0,0)">
                        <circle cx="-1113.2" cy="409.484" r="6.743" style="fill:rgb(68,85,0);"/>
                    </g>
                    <g id="circle2365" transform="matrix(-1,0,0,1,0,0)">
                        <circle cx="-1103.85" cy="413.372" r="6.743" style="fill:rgb(85,68,0);"/>
                    </g>
                    <path id="path2399" d="M1117.24,414.176C1113.57,413.797 1096.25,412.786 1096.25,412.786C1093.75,414.713 1095.33,416.232 1096,417.841L1117.74,419.864L1117.24,414.176Z" style="fill:rgb(33,120,103);fill-rule:nonzero;"/>
                    <path id="path2401" d="M1117.66,419.567L1138.78,418.079L1139.54,438.732L1118.21,441.358L1117.66,419.567Z" style="fill:rgb(147,172,167);fill-rule:nonzero;"/>
                    <path id="path2403" d="M1117.66,419.84L1096.37,417.933L1097.12,437.562L1118.06,441.142L1117.66,419.84Z" style="fill:rgb(33,103,120);fill-rule:nonzero;"/>
                    <path id="path2405" d="M1117.39,414.119L1139.55,414.165C1142.65,414.873 1141.94,417.545 1139.45,418.292L1117.53,419.966C1115.57,419.576 1114.82,414.433 1117.39,414.119L1117.39,414.119Z" style="fill:rgb(95,211,188);fill-rule:nonzero;"/>
                    <path id="path2407" d="M1137.54,419.637L1137.95,438.602L1137.03,438.418L1136.79,429.878C1134.18,430.114 1130.86,430.709 1129.71,430.214L1136.77,428.941L1136.38,420.767C1133.06,421.046 1129.77,421.309 1128.47,420.642L1137.54,419.637Z" style="fill:rgb(33,103,120);fill-rule:nonzero;"/>
                    <path id="path2409" d="M1128.6,420.629L1129.01,439.593L1128.29,439.669L1128.06,431.045C1125.17,431.279 1121.5,431.938 1119.83,431.506L1128.03,430.025L1127.8,421.344C1124.66,421.494 1117.37,422.592 1119.53,421.633L1128.6,420.629Z" style="fill:rgb(33,103,120);fill-rule:nonzero;"/>
                </g>
                <g id="path1107" transform="matrix(0.465524,0.296871,-0.377229,0.366357,1301.46,399.293)">
                    <path d="M-415.093,455.573L-489.828,520.495L-508.685,423.311L-415.093,455.573Z" style="fill:rgb(211,141,95);fill-rule:nonzero;"/>
                </g>
                <g id="path1109-4" transform="matrix(0.452726,0.312528,-0.366859,0.385679,1172.79,408.991)">
                    <path d="M-415.093,455.573L-489.828,520.495L-508.685,423.311L-415.093,455.573Z" style="fill:rgb(255,127,42);fill-rule:nonzero;"/>
                </g>
                <g id="path1109" transform="matrix(0.525247,0.363412,-0.425625,0.448473,1336.89,409.789)">
                    <path d="M-415.093,455.573L-489.828,520.495L-508.685,423.311L-415.093,455.573Z" style="fill:rgb(200,113,55);fill-rule:nonzero;"/>
                </g>
                <g id="g1879" transform="matrix(1,0,0,1,-22,0)">
                    <path id="path2676" d="M902.015,463.487L902.661,412.079C898.103,391.707 838.482,390.405 825.21,412.079L825.21,464.542L902.015,463.487Z" style="fill:rgb(244,227,215);fill-rule:nonzero;"/>
                    <path id="path2680" d="M916.17,370.937L890.551,371.313C872.978,373.616 878.899,389.968 878.184,397.651C880.126,408.102 890.813,406.51 892.76,402.918L892.76,387.492C892.762,383.606 894.909,381.546 900.269,382.224L916.17,382.224L916.17,370.937Z" style="fill:rgb(145,111,111);fill-rule:nonzero;"/>
                    <path id="path2682" d="M882.362,382.218L882.362,397.671C881.209,399.405 880.217,399.215 879.338,397.671L880.036,382.218C880.708,381.069 881.419,380.356 882.362,382.218Z" style="fill:rgb(255,230,213);fill-rule:nonzero;"/>
                    <path id="path2678" d="M865.099,396.357C867.969,420.73 864.175,443.351 855.768,464.157L902.931,464.282L902.661,408.9C896.62,402.11 875.804,394.253 865.099,396.357Z" style="fill:rgb(200,183,183);fill-rule:nonzero;"/>
                    <path id="path2690" d="M825.323,426.471L900.948,426.471" style="fill:none;fill-rule:nonzero;stroke:rgb(108,83,83);stroke-width:0.41px;"/>
                    <path id="path2692" d="M826.816,437.278L900.201,436.43" style="fill:none;fill-rule:nonzero;stroke:rgb(108,83,83);stroke-width:0.41px;"/>
                    <path id="path2694" d="M826.816,446.814L898.46,446.814" style="fill:none;fill-rule:nonzero;stroke:rgb(108,83,83);stroke-width:0.41px;"/>
                </g>
            </g>
        </g>
    </g>
</svg>
