<?xml version="1.0" encoding="UTF-8" standalone="no"?>
<!DOCTYPE svg PUBLIC "-//W3C//DTD SVG 1.1//EN" "http://www.w3.org/Graphics/SVG/1.1/DTD/svg11.dtd">
<svg width="100%" height="100%" viewBox="0 0 540 540" version="1.1" xmlns="http://www.w3.org/2000/svg" xmlns:xlink="http://www.w3.org/1999/xlink" xml:space="preserve" xmlns:serif="http://www.serif.com/" style="fill-rule:evenodd;clip-rule:evenodd;stroke-linejoin:round;stroke-miterlimit:2;">
    <g transform="matrix(0.288965,0,0,0.862442,32.8692,-87.3964)">
        <g id="bg">
            <rect id="rect2493" x="-113.748" y="643.898" width="1868.74" height="83.568" style="fill:rgb(206,216,161);"/>
        </g>
    </g>
    <g id="building" transform="matrix(1,0,0,1,-270,-90)">
        <g id="g3818" transform="matrix(0.862442,0,0,0.862442,368.101,2.60361)">
            <rect id="rect959" x="278.652" y="505.67" width="127.987" height="165.115" style="fill:rgb(206,169,141);"/>
            <path id="path2560" d="M357.165,635.433L346.909,635.64L346.793,644.706L396.569,644.583L395.93,635.875L386.519,635.433L386.519,609.816C386.519,589.048 356.905,589.073 356.905,609.987L357.165,635.433Z" style="fill:white;fill-opacity:0.5;fill-rule:nonzero;"/>
            <path id="path2562" d="M363.597,635.433L379.972,635.433L379.972,615.563C379.972,599.453 363.452,599.472 363.452,615.695L363.597,635.433Z" style="fill:rgb(121,145,169);fill-rule:nonzero;"/>
            <path id="path1120-9" d="M310.279,635.433L300.024,635.64L299.908,644.706L349.684,644.583L349.045,635.875L339.634,635.433L339.634,609.816C339.634,589.048 310.02,589.073 310.02,609.987L310.279,635.433Z" style="fill:white;fill-opacity:0.5;fill-rule:nonzero;"/>
            <path id="path1120-9-1" d="M316.711,635.433L333.087,635.433L333.087,615.563C333.087,599.453 316.566,599.472 316.566,615.695L316.711,635.433Z" style="fill:rgb(121,145,169);fill-rule:nonzero;"/>
            <path id="path1244" d="M311.285,488.544L284.52,488.544L284.52,479.81C284.806,478.591 284.811,477.232 287.619,477.274L294.381,477.274C288.221,475.878 281.614,463.251 293.818,462.06C292.97,455.017 303.275,454.09 302.833,462.342C315.952,463.839 309.839,473.219 303.397,478.12L309.967,478.001C310.599,478.664 311.846,478.916 311.285,480.374L311.285,488.544Z" style="fill:rgb(233,215,178);fill-rule:nonzero;"/>
            <path id="path1244-7" d="M410.859,488.664L384.094,488.664L384.094,479.93C384.38,478.711 384.385,477.351 387.193,477.394L393.955,477.394C387.795,475.998 381.188,463.371 393.391,462.18C392.544,455.137 402.849,454.21 402.407,462.462C415.526,463.958 409.412,473.338 402.971,478.239L409.541,478.121C410.173,478.783 411.42,479.035 410.859,480.493L410.859,488.664Z" style="fill:rgb(233,215,178);fill-rule:nonzero;"/>
            <path id="path1261" d="M388.265,480.329L310.283,479.924L310.08,488.238L321.547,488.035C321.797,481.356 328.887,483.597 328.442,488.035L335.134,488.035C334.764,482.436 342.383,482.589 342.232,488.035L348.113,488.145C347.565,482.331 355.445,482.174 355.007,487.958L361.497,488.051C360.673,481.556 368.02,483.504 367.58,487.832L374.475,488.035C373.641,483.474 382.11,480.699 381.167,488.238L388.265,488.44L388.265,480.329Z" style="fill:rgb(233,215,178);fill-rule:nonzero;"/>
            <path id="rect1094-5" d="M403.311,643.118L402.729,661.848L277.733,661.848L277.733,671.242L450.247,671.242L450.247,661.848L441.815,661.848L441.796,657.899L434.66,657.865L434.699,654.216L426.623,653.884L426.589,648.666L419.156,648.514L418.797,643.127L403.311,643.118Z" style="fill:rgb(244,227,215);fill-rule:nonzero;"/>
            <g id="g2558" transform="matrix(0.732583,0,0,0.732583,-116.678,200.887)">
                <path id="path1120" d="M580.872,507.145L614.268,507.145L614.268,462.814C614.268,426.873 580.576,426.916 580.576,463.11L580.872,507.145Z" style="fill:white;fill-opacity:0.5;fill-rule:nonzero;"/>
                <rect id="rect1122" x="589.59" y="462.518" width="15.664" height="44.626" style="fill:rgb(121,145,169);"/>
                <path id="path2534" d="M618.872,507.145L652.268,507.145L652.268,462.814C652.268,426.873 618.576,426.916 618.576,463.11L618.872,507.145Z" style="fill:white;fill-opacity:0.5;fill-rule:nonzero;"/>
                <rect id="rect2536" x="627.59" y="462.518" width="15.664" height="44.626" style="fill:rgb(121,145,169);"/>
                <path id="path2540" d="M656.872,507.145L690.268,507.145L690.268,462.814C690.268,426.873 656.576,426.916 656.576,463.11L656.872,507.145Z" style="fill:white;fill-opacity:0.5;fill-rule:nonzero;"/>
                <rect id="rect2542" x="665.59" y="462.518" width="15.664" height="44.626" style="fill:rgb(121,145,169);"/>
            </g>
            <g id="g2530" transform="matrix(0.732583,0,0,0.732583,-116.678,200.887)">
                <rect id="rect955" x="683.858" y="410.546" width="37.969" height="19.388" style="fill:rgb(233,215,178);"/>
                <rect id="rect957" x="690.361" y="428.227" width="24.963" height="69.23" style="fill:rgb(233,215,178);"/>
                <rect id="rect955-9" x="682.749" y="497.052" width="40.187" height="15.838" style="fill:rgb(233,215,178);"/>
                <rect id="rect955-5" x="545.884" y="408.546" width="37.969" height="19.388" style="fill:rgb(233,215,178);"/>
                <rect id="rect957-4" x="552.387" y="427.86" width="24.963" height="69.597" style="fill:rgb(233,215,178);"/>
                <rect id="rect955-9-2" x="544.775" y="497.052" width="40.187" height="15.838" style="fill:rgb(233,215,178);"/>
                <rect id="rect955-5-2" x="545.884" y="512.996" width="37.969" height="22.045" style="fill:rgb(233,215,178);"/>
                <rect id="rect957-4-5" x="552.387" y="532.105" width="24.963" height="86.868" style="fill:rgb(233,215,178);"/>
                <rect id="rect955-9-2-1" x="544.775" y="618.179" width="40.187" height="18.009" style="fill:rgb(233,215,178);"/>
                <rect id="rect955-92-9" x="622.919" y="516.915" width="23.959" height="19.09" style="fill:rgb(233,215,178);"/>
                <rect id="rect957-45-7" x="629.72" y="535.532" width="11.55" height="87.355" style="fill:rgb(233,215,178);"/>
                <rect id="rect955-9-8-3" x="615.624" y="620.169" width="40.187" height="15.838" style="fill:rgb(233,215,178);"/>
                <rect id="rect955-92" x="683.858" y="516.915" width="37.969" height="19.388" style="fill:rgb(233,215,178);"/>
                <rect id="rect957-45" x="690.361" y="534.431" width="24.963" height="88.783" style="fill:rgb(233,215,178);"/>
                <rect id="rect955-9-8" x="682.749" y="619.421" width="40.187" height="15.838" style="fill:rgb(233,215,178);"/>
            </g>
            <rect id="rect1094" x="277.306" y="572.25" width="142.38" height="9.943" style="fill:rgb(244,227,215);"/>
            <path id="path1598" d="M279.241,505.645L276.283,501.726L420.118,502.06L410.748,506.595L279.241,505.645Z" style="fill:rgb(209,146,111);fill-rule:nonzero;"/>
            <rect id="rect1094-8" x="273.4" y="488.36" width="148.925" height="14.413" style="fill:rgb(244,227,215);fill-opacity:0.8;"/>
            <rect id="rect2532" x="277.306" y="661.624" width="142.38" height="9.943" style="fill:rgb(244,227,215);"/>
        </g>
        <g id="g3654" transform="matrix(0.862442,0,0,0.862442,368.101,2.60361)">
            <path id="path2125" d="M132.867,487.48C133.175,478.63 128.058,464.463 108.505,467.878C113.495,458.2 103.551,449.455 98.144,451.077C102.001,436.859 89.42,433.199 81.623,435.676C83.312,422.977 76.368,410.865 50.036,411.109C47.34,393.04 6.368,370.97 -12.8,408.533C-42.027,407.218 -48.102,425.826 -45.228,435.676C-61.584,434.721 -66.861,444.078 -64.269,453.037C-71.26,452.158 -76.563,457.826 -74.91,466.758C-92.381,466.36 -96.54,477.481 -96.322,490L132.867,487.48Z" style="fill:rgb(206,169,141);fill-rule:nonzero;"/>
            <rect id="rect959-5" x="-89.566" y="502.313" width="218.315" height="154.497" style="fill:rgb(206,169,141);"/>
            <path id="path1120-0" d="M-9.618,573.262L14.847,573.262L14.847,540.786C14.847,514.456 -9.835,514.488 -9.835,541.002L-9.618,573.262Z" style="fill:white;fill-opacity:0.5;fill-rule:nonzero;"/>
            <rect id="rect1122-7" x="-3.231" y="540.569" width="11.475" height="32.693" style="fill:rgb(121,145,169);"/>
            <path id="path1120-5-9" d="M17.994,573.262L42.459,573.262L42.459,540.786C42.459,514.456 17.777,514.488 17.777,541.002L17.994,573.262Z" style="fill:white;fill-opacity:0.5;fill-rule:nonzero;"/>
            <rect id="rect1122-5-7" x="24.381" y="540.569" width="11.475" height="32.693" style="fill:rgb(121,145,169);"/>
            <path id="path1120-5-5-3" d="M45.606,573.262L70.071,573.262L70.071,540.786C70.071,514.456 45.39,514.488 45.39,541.002L45.606,573.262Z" style="fill:white;fill-opacity:0.5;fill-rule:nonzero;"/>
            <rect id="rect1122-5-6-9" x="51.993" y="540.569" width="11.475" height="32.693" style="fill:rgb(121,145,169);"/>
            <path id="path1120-9-4" d="M3.524,634.817L-6.732,635.025L-6.847,644.09L42.929,643.967L42.289,635.259L32.878,634.817L32.878,609.201C32.878,588.432 3.264,588.457 3.264,609.371L3.524,634.817Z" style="fill:white;fill-opacity:0.5;fill-rule:nonzero;"/>
            <path id="path1120-9-1-9" d="M9.956,634.817L26.332,634.817L26.332,614.947C26.332,598.837 9.811,598.857 9.811,615.079L9.956,634.817Z" style="fill:rgb(121,145,169);fill-rule:nonzero;"/>
            <path id="path1223-5" d="M48.944,634.817L38.688,635.025L38.573,644.09L88.349,643.967L87.709,635.259L78.299,634.817L78.299,609.201C78.299,588.432 48.684,588.457 48.684,609.371L48.944,634.817Z" style="fill:white;fill-opacity:0.5;fill-rule:nonzero;"/>
            <path id="path1225-9" d="M55.376,634.817L71.752,634.817L71.752,614.947C71.752,598.837 55.231,598.857 55.231,615.079L55.376,634.817Z" style="fill:rgb(121,145,169);fill-rule:nonzero;"/>
            <path id="path1983" d="M-38.966,634.817L-49.222,635.025L-49.337,644.09L0.439,643.967L-0.201,635.259L-9.611,634.817L-9.611,609.201C-9.611,588.432 -39.226,588.457 -39.226,609.371L-38.966,634.817Z" style="fill:white;fill-opacity:0.5;fill-rule:nonzero;"/>
            <path id="path1985" d="M-32.534,634.817L-16.158,634.817L-16.158,614.947C-16.158,598.837 -32.679,598.857 -32.679,615.079L-32.534,634.817Z" style="fill:rgb(121,145,169);fill-rule:nonzero;"/>
            <path id="path2078" d="M31.28,476.145L21.024,476.353L20.909,485.418L70.685,485.295L70.045,476.588L60.634,476.145L60.634,450.529C60.634,429.76 31.02,429.785 31.02,450.699L31.28,476.145Z" style="fill:white;fill-opacity:0.5;fill-rule:nonzero;"/>
            <path id="path2080" d="M37.712,476.145L54.088,476.145L54.088,456.275C54.088,440.165 37.567,440.185 37.567,456.407L37.712,476.145Z" style="fill:rgb(121,145,169);fill-rule:nonzero;"/>
            <path id="path2084" d="M-31.227,476.145L-41.483,476.353L-41.599,485.418L8.177,485.295L7.538,476.588L-1.873,476.145L-1.873,450.529C-1.873,429.76 -31.487,429.785 -31.487,450.699L-31.227,476.145Z" style="fill:white;fill-opacity:0.5;fill-rule:nonzero;"/>
            <path id="path2086" d="M-24.795,476.145L-8.42,476.145L-8.42,456.275C-8.42,440.165 -24.94,440.185 -24.94,456.407L-24.795,476.145Z" style="fill:rgb(121,145,169);fill-rule:nonzero;"/>
            <g id="g2321" transform="matrix(0.732583,0,0,0.732583,-430.759,200.271)">
                <rect id="rect957-4-8" x="504.387" y="411.012" width="24.963" height="87.918" style="fill:rgb(233,215,178);"/>
                <rect id="rect955-9-2-6" x="453.1" y="493.663" width="83.862" height="21.978" style="fill:rgb(233,215,178);"/>
                <rect id="rect957-4-8-8" x="462.945" y="410.361" width="24.963" height="85.284" style="fill:rgb(233,215,178);"/>
                <rect id="rect955-92-95" x="740.723" y="517.677" width="31.299" height="17.212" style="fill:rgb(233,215,178);"/>
                <rect id="rect957-45-5" x="746.084" y="534.889" width="20.579" height="78.694" style="fill:rgb(233,215,178);"/>
                <rect id="rect955-9-8-6" x="739.809" y="612.724" width="33.128" height="14.061" style="fill:rgb(233,215,178);"/>
                <rect id="rect2013" x="574.131" y="519.053" width="20.901" height="13.256" style="fill:rgb(233,215,178);"/>
                <rect id="rect2015" x="579.075" y="530.507" width="11.012" height="82.299" style="fill:rgb(233,215,178);"/>
                <rect id="rect2017" x="572.8" y="612.478" width="23.561" height="14.141" style="fill:rgb(233,215,178);"/>
                <rect id="rect2021" x="696.723" y="517.219" width="31.299" height="17.068" style="fill:rgb(233,215,178);"/>
                <rect id="rect2023" x="702.084" y="534.286" width="20.579" height="78.033" style="fill:rgb(233,215,178);"/>
                <rect id="rect2025" x="695.809" y="611.467" width="33.128" height="13.943" style="fill:rgb(233,215,178);"/>
                <rect id="rect2029" x="634.131" y="519.053" width="20.901" height="13.313" style="fill:rgb(233,215,178);"/>
                <rect id="rect2031" x="639.075" y="530.555" width="11.012" height="82.649" style="fill:rgb(233,215,178);"/>
                <rect id="rect2033" x="632.8" y="612.876" width="23.561" height="14.202" style="fill:rgb(233,215,178);"/>
                <rect id="rect2037" x="500.723" y="516.302" width="31.299" height="17.429" style="fill:rgb(233,215,178);"/>
                <rect id="rect2039" x="506.083" y="533.731" width="20.579" height="79.687" style="fill:rgb(233,215,178);"/>
                <rect id="rect2041" x="499.809" y="612.547" width="33.128" height="14.238" style="fill:rgb(233,215,178);"/>
                <rect id="rect2045" x="458.723" y="518.887" width="31.299" height="16.706" style="fill:rgb(233,215,178);"/>
                <rect id="rect2047" x="464.083" y="535.593" width="20.579" height="76.38" style="fill:rgb(233,215,178);"/>
                <rect id="rect2049" x="457.809" y="611.138" width="33.128" height="13.647" style="fill:rgb(233,215,178);"/>
                <rect id="rect2068" x="740.387" y="409.645" width="24.963" height="89.066" style="fill:rgb(233,215,178);"/>
                <rect id="rect2070" x="689.1" y="493.376" width="83.862" height="22.266" style="fill:rgb(233,215,178);"/>
                <rect id="rect2072" x="698.945" y="408.986" width="24.963" height="86.398" style="fill:rgb(233,215,178);"/>
                <rect id="rect2090" x="677.036" y="321.231" width="30.635" height="14.855" style="fill:rgb(233,215,178);"/>
                <rect id="rect2092" x="682.283" y="336.087" width="20.142" height="51.304" style="fill:rgb(233,215,178);"/>
                <rect id="rect2094" x="676.141" y="384.675" width="32.425" height="12.136" style="fill:rgb(233,215,178);"/>
                <rect id="rect2098" x="600.057" y="321.231" width="30.635" height="14.855" style="fill:rgb(233,215,178);"/>
                <rect id="rect2100" x="605.304" y="336.087" width="20.142" height="51.304" style="fill:rgb(233,215,178);"/>
                <rect id="rect2102" x="599.162" y="384.675" width="32.425" height="12.136" style="fill:rgb(233,215,178);"/>
                <rect id="rect2104" x="515.504" y="321.231" width="30.635" height="14.855" style="fill:rgb(233,215,178);"/>
                <rect id="rect2106" x="520.75" y="336.087" width="20.142" height="51.304" style="fill:rgb(233,215,178);"/>
                <rect id="rect2108" x="514.609" y="384.675" width="32.425" height="12.136" style="fill:rgb(233,215,178);"/>
            </g>
            <rect id="rect2159" x="-25.971" y="413.574" width="88.487" height="12.546" style="fill:rgb(231,210,193);"/>
            <rect id="rect1094-8-49-6" x="-57.003" y="428.688" width="150.821" height="10.612" style="fill:rgb(244,227,215);"/>
            <path id="path2176" d="M-37.456,573.262L-12.991,573.262L-12.991,540.786C-12.991,514.456 -37.673,514.488 -37.673,541.002L-37.456,573.262Z" style="fill:white;fill-opacity:0.5;fill-rule:nonzero;"/>
            <rect id="rect2178" x="-31.069" y="540.569" width="11.475" height="32.693" style="fill:rgb(121,145,169);"/>
            <rect id="rect1094-89" x="-101.416" y="573.099" width="238.391" height="9.943" style="fill:rgb(244,227,215);"/>
            <rect id="rect1094-89-3" x="-98.649" y="656.189" width="235.032" height="9.943" style="fill:rgb(244,227,215);"/>
            <rect id="rect1094-8-49" x="-100.789" y="486.772" width="239.471" height="16.849" style="fill:rgb(244,227,215);"/>
        </g>
        <g id="g3744" transform="matrix(0.862442,0,0,0.862442,368.101,2.60361)">
            <rect id="rect959-3" x="128.257" y="533.085" width="153.526" height="122.621" style="fill:rgb(209,146,111);"/>
            <path id="path1261-7" d="M283.297,514.378L242.933,513.678C242.933,513.678 243.061,521.329 242.767,522.093C242.446,522.926 242.975,522.108 247.54,522.194C246.993,516.381 254.873,516.223 254.435,522.007L260.924,522.1C260.1,515.605 267.448,517.553 267.008,521.881L272.437,522.084C271.604,517.523 280.072,514.748 279.129,522.287L283.297,522.489L283.297,514.378Z" style="fill:rgb(233,215,178);fill-rule:nonzero;"/>
            <path id="path1310" d="M231.449,514.09L191.085,513.389C191.085,513.389 191.212,521.041 190.918,521.804C190.598,522.637 191.127,521.819 195.692,521.905C195.145,516.092 203.024,515.934 202.587,521.718L209.076,521.812C208.252,515.316 215.6,517.264 215.159,521.593L220.589,521.795C219.755,517.235 228.224,514.46 227.281,521.998L231.448,522.201L231.449,514.09Z" style="fill:rgb(233,215,178);fill-rule:nonzero;"/>
            <path id="path1312" d="M238.83,505.826C238.369,504.014 238.891,502.211 241.656,501.116C243.427,496.963 241.7,492.361 236.382,492.207C231.645,492.07 227.296,496.06 230.621,501.52C233.523,502.4 234.484,504.008 234.524,505.961L238.83,505.826Z" style="fill:rgb(209,146,111);fill-rule:nonzero;"/>
            <path id="path1310-9" d="M179.787,513.15L139.424,513.603C139.424,513.603 139.551,521.254 139.257,522.018C138.937,522.851 139.466,522.033 144.031,522.119C143.483,516.306 151.363,516.148 150.925,521.932L157.415,522.025C156.591,515.53 163.938,517.478 163.498,521.806L168.928,522.009C168.094,517.448 176.563,514.673 175.62,522.212L179.787,522.414L179.787,513.15Z" style="fill:rgb(233,215,178);fill-rule:nonzero;"/>
            <rect id="rect1344" x="221.211" y="545.459" width="32.881" height="38.072" style="fill:rgb(121,145,169);"/>
            <rect id="rect1344-2" x="168.236" y="545.459" width="32.881" height="38.072" style="fill:rgb(121,145,169);"/>
            <rect id="rect1344-2-5" x="128.848" y="545.459" width="22.302" height="38.072" style="fill:rgb(121,145,169);"/>
            <rect id="rect1344-2-5-6" x="270.411" y="545.459" width="18.917" height="38.072" style="fill:rgb(121,145,169);"/>
            <path id="path1120-9-1-3" d="M251.789,646.896L273.44,646.896L273.44,621.109C273.44,600.201 251.598,600.227 251.598,621.281L251.789,646.896Z" style="fill:rgb(10,48,85);fill-rule:nonzero;"/>
            <path id="path1120-9-1-3-4" d="M200.393,646.896L222.044,646.896L222.044,621.109C222.044,600.201 200.201,600.227 200.201,621.281L200.393,646.896Z" style="fill:rgb(10,48,85);fill-rule:nonzero;"/>
            <path id="path1120-9-1-3-4-7" d="M145.742,646.896L167.392,646.896L167.392,621.109C167.392,600.201 145.55,600.227 145.55,621.281L145.742,646.896Z" style="fill:rgb(10,48,85);fill-rule:nonzero;"/>
            <rect id="rect1094-8-4" x="128.353" y="581.057" width="160.177" height="12.165" style="fill:rgb(231,210,193);"/>
            <rect id="rect1094-8-4-8" x="127.603" y="521.864" width="163.147" height="11.724" style="fill:rgb(231,210,193);"/>
            <path id="path1312-4" d="M188.733,506.257C188.272,504.445 188.794,502.642 191.559,501.547C193.33,497.394 191.603,492.792 186.285,492.638C181.548,492.501 177.199,496.49 180.524,501.951C183.426,502.831 184.387,504.438 184.427,506.392L188.733,506.257Z" style="fill:rgb(209,146,111);fill-rule:nonzero;"/>
            <path id="path1312-4-0" d="M136.182,506.714C135.721,504.902 136.243,503.099 139.008,502.004C140.779,497.851 139.053,493.249 133.734,493.095C128.997,492.958 124.648,496.947 127.973,502.408C130.875,503.288 131.836,504.895 131.876,506.849L136.182,506.714Z" style="fill:rgb(209,146,111);fill-rule:nonzero;"/>
            <rect id="rect1263" x="230.193" y="505.016" width="12.979" height="148.962" style="fill:rgb(231,210,193);"/>
            <rect id="rect1263-9" x="179.457" y="506.481" width="12.979" height="148.962" style="fill:rgb(231,210,193);"/>
            <rect id="rect1263-9-3" x="128.417" y="506.481" width="12.979" height="148.962" style="fill:rgb(231,210,193);"/>
            <rect id="rect1687" x="125.045" y="645.802" width="160.177" height="12.165" style="fill:rgb(231,210,193);"/>
            <path id="path2456" d="M150.578,463.753C154.148,468.604 157.718,472.367 161.288,478.843C162.109,479.767 158.826,484.422 157.686,483.419C157.384,483.154 160.411,488.834 160.12,489.747C159.389,492.036 150.594,495.105 150.481,493.642L150.578,463.753Z" style="fill:rgb(87,186,185);fill-rule:nonzero;"/>
            <path id="path2456-1" d="M168.82,478.083C172.39,482.934 174.791,485.135 178.361,491.611C179.182,492.534 176.386,496.606 175.246,495.602C174.944,495.337 178.068,500.433 177.777,501.346C177.047,503.636 168.835,506.996 168.723,505.533L168.82,478.083Z" style="fill:rgb(87,186,185);fill-rule:nonzero;"/>
            <rect id="rect2409" x="146.839" y="463.479" width="3.794" height="59.481" style="fill:rgb(204,204,204);"/>
            <rect id="rect2409-0" x="144.239" y="456.266" width="8.993" height="7.906" style="fill:rgb(204,204,204);"/>
            <rect id="rect2409-3" x="165.012" y="477.823" width="3.794" height="44.409" style="fill:rgb(204,204,204);"/>
            <rect id="rect2409-0-9" x="162.413" y="471.295" width="8.993" height="7.906" style="fill:rgb(204,204,204);"/>
        </g>
    </g>
    <g id="foreground" transform="matrix(1,0,0,1,-270,-90)">
        <g id="g3830" transform="matrix(0.862442,0,0,0.862442,368.101,2.60361)">
            <path id="path2303" d="M384.278,690.469L384.278,666.005L369.492,666.005C363.163,685.757 355.49,679.89 350.773,659.036L344.078,659.354C346.804,676.978 355.266,698.247 371.281,682.1L371.281,689.663L384.278,690.469Z" style="fill:rgb(200,113,55);fill-rule:nonzero;"/>
            <circle id="circle2305" cx="368.148" cy="648.8" r="21.231" style="fill:rgb(170,222,135);"/>
            <circle id="circle2307" cx="349.733" cy="619.631" r="24.054" style="fill:rgb(135,222,135);"/>
            <circle id="circle2309" cx="392.746" cy="659.419" r="18.408" style="fill:rgb(179,255,128);"/>
            <circle id="circle2311" cx="331.848" cy="645.029" r="26.608" style="fill:rgb(204,255,170);"/>
        </g>
        <g id="g3854" transform="matrix(0.862442,0,0,0.862442,368.101,2.60361)">
            <path id="path1101-8-8-0" d="M161.371,686.657L161.371,666.726L149.325,666.726C144.168,682.818 137.917,678.037 134.075,661.048L128.62,661.307C130.84,675.665 137.735,692.994 150.782,679.838L150.782,686L161.371,686.657Z" style="fill:rgb(200,113,55);fill-rule:nonzero;"/>
            <circle id="path983-5-5-2-1-0" cx="137.177" cy="630.312" r="19.597" style="fill:rgb(0,128,128);"/>
            <circle id="path983-5-5-2-9-1-4" cx="153.449" cy="655.968" r="16.202" style="fill:rgb(113,200,55);"/>
            <circle id="path983-5-5-2-9-8-6-3" cx="169.481" cy="656.971" r="16.202" style="fill:rgb(170,222,135);"/>
            <circle id="path983-5-5-2-9-8-2-1-8" cx="129.747" cy="656.88" r="16.202" style="fill:rgb(170,222,135);"/>
        </g>
        <g id="g3866" transform="matrix(0.862442,0,0,0.862442,368.101,2.60361)">
            <path id="path1101-4" d="M3.748,692.809L3.748,668.345L18.534,668.345C24.863,688.097 32.536,682.229 37.252,661.375L43.948,661.693C41.222,679.317 32.759,700.587 16.744,684.44L16.744,692.003L3.748,692.809Z" style="fill:rgb(200,113,55);fill-rule:nonzero;"/>
            <g id="path983-5-4" transform="matrix(-1,0,0,1,0,0)">
                <circle cx="-19.878" cy="651.139" r="21.231" style="fill:rgb(170,222,135);"/>
            </g>
            <g id="path983-5-5-7" transform="matrix(-1,0,0,1,0,0)">
                <circle cx="-38.293" cy="621.97" r="24.054" style="fill:rgb(135,222,135);"/>
            </g>
            <g id="path983-5-8-9" transform="matrix(-1,0,0,1,0,0)">
                <circle cx="4.721" cy="661.758" r="18.408" style="fill:rgb(179,255,128);"/>
            </g>
            <g id="path983-55" transform="matrix(-1,0,0,1,0,0)">
                <circle cx="-56.178" cy="647.368" r="26.608" style="fill:rgb(204,255,170);"/>
            </g>
        </g>
        <g id="g3842" transform="matrix(0.862442,0,0,0.862442,368.101,2.60361)">
            <path id="path3490" d="M273.528,689.98L273.528,670.049L261.482,670.049C256.326,686.141 250.074,681.361 246.232,664.371L240.777,664.63C242.998,678.988 249.892,696.316 262.94,683.161L262.94,689.323L273.528,689.98Z" style="fill:rgb(200,113,55);fill-rule:nonzero;"/>
            <circle id="circle3492" cx="249.335" cy="633.635" r="19.597" style="fill:rgb(0,128,128);"/>
            <circle id="circle3494" cx="265.607" cy="659.291" r="16.202" style="fill:rgb(113,200,55);"/>
            <circle id="circle3496" cx="281.639" cy="660.294" r="16.202" style="fill:rgb(170,222,135);"/>
            <circle id="circle3498" cx="241.904" cy="660.203" r="16.202" style="fill:rgb(170,222,135);"/>
        </g>
        <g id="g3878" transform="matrix(0.862442,0,0,0.862442,368.101,2.60361)">
            <path id="rect1528-1" d="M484.221,625.858L479.535,626.155C472.808,625.913 471.503,632.185 471.528,635.598L471.528,697.089C471.528,697.258 472.154,697.394 472.932,697.394C473.711,697.394 474.337,697.258 474.337,697.089L474.337,635.598C474.66,630.317 477.673,629.057 479.594,629.061L484.043,628.943L484.221,625.858Z" style="fill:rgb(89,146,199);fill-opacity:0.8;fill-rule:nonzero;"/>
            <path id="rect1537-1" d="M492.409,629.447C492.409,628.809 491.89,628.29 491.252,628.29L485.794,628.29C485.155,628.29 484.637,628.809 484.637,629.447C484.637,630.086 485.155,630.604 485.794,630.604L491.252,630.604C491.89,630.604 492.409,630.086 492.409,629.447Z" style="fill:rgb(57,80,106);"/>
            <path id="path1535-9" d="M484.044,629.062L493.239,629.062C493.029,627.081 494.393,624.588 488.196,624.553C486.026,624.639 484.496,625.282 483.984,626.214L484.044,629.062Z" style="fill:rgb(240,236,201);fill-rule:nonzero;"/>
            <path id="rect1528-5-8" d="M478.347,628.355C474.231,628.291 472.93,633.496 472.955,636.909L472.955,697.506C472.955,697.675 472.687,697.811 473.465,697.811C474.244,697.811 474.872,697.675 474.87,697.506L474.423,636.909C474.747,631.628 476.597,629.739 478.34,629.031C479.97,628.79 479.614,628.483 478.347,628.355L478.347,628.355Z" style="fill:rgb(230,231,193);fill-rule:nonzero;"/>
            <path id="path1535-0-6" d="M484.044,629.062L488.018,629.062C489.315,629.274 488.766,624.804 488.196,624.553C486.026,624.639 484.496,625.282 483.984,626.214L484.044,629.062Z" style="fill:rgb(227,219,219);fill-rule:nonzero;"/>
        </g>
        <g id="path3502" transform="matrix(1.0539,0,0,1.0539,270,-130.252)">
            <path d="M0,720L512.382,720.024L512.382,705.274L0,704.084L0,720Z" style="fill:rgb(122,146,168);fill-rule:nonzero;"/>
        </g>
    </g>
</svg>
