<?xml version="1.0" encoding="UTF-8" standalone="no"?>
<!DOCTYPE svg PUBLIC "-//W3C//DTD SVG 1.1//EN" "http://www.w3.org/Graphics/SVG/1.1/DTD/svg11.dtd">
<svg width="100%" height="100%" viewBox="0 0 100 80" version="1.1" xmlns="http://www.w3.org/2000/svg" xmlns:xlink="http://www.w3.org/1999/xlink" xml:space="preserve" xmlns:serif="http://www.serif.com/" style="fill-rule:evenodd;clip-rule:evenodd;stroke-linejoin:round;stroke-miterlimit:2;">
    <g id="waste-truck">
    </g>
    <g id="waste-truck1" serif:id="waste-truck" transform="matrix(0.313628,0,0,0.313628,-112.352,-125.973)">
        <g id="chassis-group">
            <g id="undertray" transform="matrix(1,0,-0.0137918,0.999905,0,0)">
                <rect x="464.45" y="592.677" width="186.599" height="44.071" style="fill:rgb(140,161,142);"/>
            </g>
            <rect id="undertray-front" x="365.677" y="614.895" width="36.583" height="27.863" style="fill:rgb(76,100,99);"/>
            <rect id="bumper" x="358.233" y="608.833" width="24.885" height="35.945" style="fill:rgb(234,243,224);"/>
            <path id="cab" d="M442.578,525.564C430.433,526.401 417.929,525.742 405.67,525.695C389.163,525.428 375.891,541.619 375.547,553.002L375.547,610.047C375.547,613.086 377.994,615.533 381.033,615.533L442.578,615.533C447.981,615.533 452.328,611.184 452.328,605.781L452.328,535.316C452.328,529.914 447.981,525.564 442.578,525.564ZM400.287,538.152L428.086,538.152C430.18,538.152 431.865,539.838 431.865,541.932L431.865,571.957C431.865,574.051 430.18,575.736 428.086,575.736L392.287,575.736C390.193,575.736 387.514,569.447 388.084,567.432L395.377,541.649C395.946,539.634 398.193,538.152 400.287,538.152Z" style="fill:rgb(164,194,131);fill-rule:nonzero;"/>
            <rect id="engine-bay" x="401.61" y="601.458" width="54.031" height="34.706" style="fill:rgb(26,26,26);"/>
            <path id="wheel-arch" d="M456.184,635.259C453.663,613.975 446.577,603.479 430.139,601.737C406.526,602.408 401.574,618.819 401.329,637.569C401.169,641.232 393.22,641.785 393.367,637.993C392.796,618.278 390.389,591.27 432.146,591.526C452.329,591.784 464.138,608.742 464.39,635.228C464.244,639.756 456.32,642.876 454.351,635.666L456.184,635.259Z" style="fill:rgb(117,139,123);fill-rule:nonzero;"/>
            <g id="mirror-group">
                <path id="mirror-case" d="M381.161,566.232C381.161,576.012 377.482,584.06 373.011,584.06C368.54,584.06 364.861,576.012 364.861,566.232C364.861,556.452 368.54,548.404 373.011,548.404C377.482,548.404 381.161,556.452 381.161,566.232" style="fill:rgb(66,78,66);fill-rule:nonzero;"/>
                <path id="mirror" d="M380.578,566.051C380.578,575.05 378.002,582.454 374.872,582.454C371.742,582.454 369.167,575.05 369.167,566.051C369.167,566.051 369.167,566.051 369.167,566.051C369.167,557.053 371.742,549.649 374.872,549.649C378.002,549.649 380.578,557.053 380.578,566.051C380.578,566.051 380.578,566.051 380.578,566.051" style="fill:rgb(219,236,234);fill-rule:nonzero;"/>
            </g>
            <path id="body-main" d="M639.521,471.387C635.759,471.409 632.544,473.317 631.881,478.674L517.719,478.674C509.343,478.674 502.403,485.418 502.602,493.791C502.861,502.81 502.43,526.238 502.375,529.158L487.137,529.361C487.137,529.361 482.69,509.361 474.396,506.178C470.428,504.657 461.086,503.434 457.078,506.109C449.458,511.196 450.959,526.216 450.629,544.83L450.629,585.1C450.629,593.475 457.371,600.219 465.746,600.219L508.811,600.219C511.428,604.089 515.057,608.705 517.719,609.779L646.846,609.779C663.597,609.779 677.082,596.294 677.082,579.543L677.082,508.91C677.082,492.288 663.801,478.888 647.229,478.684C646.566,473.305 643.332,471.387 639.555,471.387C639.544,471.387 639.532,471.387 639.521,471.387L639.521,471.387Z" style="fill:rgb(137,214,132);fill-rule:nonzero;"/>
            <g id="body-mid" transform="matrix(1,0,0,1,46,0)">
                <clipPath id="_clip1">
                    <path d="M456.842,524.98C456.573,524.979 456.358,525.195 456.358,525.464L456.358,540.157L403.895,540.346C403.668,540.346 403.484,540.527 403.484,540.754L403.484,619.779C403.484,620.006 403.668,620.187 403.895,620.187C481.687,619.767 642.941,620.408 642.941,620.408C642.941,620.408 643.426,548.965 643.426,525.652C643.426,525.384 643.21,525.168 642.941,525.168L456.842,524.98Z"/>
                </clipPath>
                <g clip-path="url(#_clip1)">
                    <path d="M593.521,471.387C589.759,471.409 586.544,473.317 585.881,478.674L471.719,478.674C463.343,478.674 456.403,485.418 456.601,493.791C456.861,502.81 456.429,526.238 456.375,529.158L441.137,529.361C441.137,529.361 436.69,509.361 428.396,506.178C424.428,504.657 415.086,503.434 411.078,506.109C403.458,511.196 404.958,526.216 404.629,544.83L404.629,585.1C404.629,593.475 411.371,600.219 419.746,600.219L462.811,600.219C465.427,604.089 469.057,608.705 471.719,609.779L600.846,609.779C617.597,609.779 631.082,596.294 631.082,579.543L631.082,508.91C631.082,492.288 617.801,478.888 601.229,478.684C600.566,473.305 597.332,471.387 593.555,471.387C593.543,471.387 593.532,471.387 593.521,471.387L593.521,471.387Z" style="fill:rgb(76,107,68);fill-rule:nonzero;"/>
                </g>
            </g>
            <clipPath id="_clip2">
                <path id="body-low" d="M639.521,471.387C635.759,471.409 632.544,473.317 631.881,478.674L517.719,478.674C509.343,478.674 502.403,485.418 502.602,493.791C502.861,502.81 502.43,526.238 502.375,529.158L487.137,529.361C487.137,529.361 482.69,509.361 474.396,506.178C470.428,504.657 461.086,503.434 457.078,506.109C449.458,511.196 450.959,526.216 450.629,544.83L450.629,585.1C450.629,593.475 457.371,600.219 465.746,600.219L508.811,600.219C511.428,604.089 515.057,608.705 517.719,609.779L646.846,609.779C663.597,609.779 677.082,596.294 677.082,579.543L677.082,508.91C677.082,492.288 663.801,478.888 647.229,478.684C646.566,473.305 643.332,471.387 639.555,471.387C639.544,471.387 639.532,471.387 639.521,471.387L639.521,471.387Z"/>
            </clipPath>
            <g clip-path="url(#_clip2)">
                <path d="M500.47,565.641C499.012,569.231 501.561,574.894 501.561,574.894L479.195,574.894C472.313,574.894 466.773,579.454 466.773,585.117C466.773,590.781 472.313,595.34 479.195,595.34L506.126,595.141L508.805,600.217L681.379,600.217L681.379,565.74L500.47,565.641Z" style="fill:rgb(153,153,153);fill-opacity:0.4;fill-rule:nonzero;"/>
            </g>
            <rect id="body-detail" x="576.398" y="485.883" width="39.826" height="12.31" style="fill:rgb(194,223,171);"/>
        </g>
        <g id="wheels-group">
            <g id="back-wheel">
                <circle id="back-wheel-tyre" cx="604.583" cy="636.687" r="19.754" style="fill:rgb(49,62,57);"/>
                <circle id="back-wheel-rim" cx="604.583" cy="636.687" r="15.803" style="fill:rgb(66,80,70);"/>
                <circle id="back-wheel-cap" cx="604.583" cy="636.687" r="5.47" style="fill:rgb(116,133,119);"/>
            </g>
            <g id="mid-wheel">
                <circle id="mid-wheel-tyre" cx="551.494" cy="636.991" r="19.754" style="fill:rgb(49,62,57);"/>
                <circle id="mid-wheel-rim" cx="551.494" cy="636.991" r="15.803" style="fill:rgb(66,80,70);"/>
                <circle id="mid-wheel-cap" cx="551.494" cy="636.991" r="5.47" style="fill:rgb(116,133,119);"/>
            </g>
            <g id="front-wheel">
                <circle id="front-wheel-tyre" cx="428.837" cy="636.658" r="19.754" style="fill:rgb(49,62,57);"/>
                <circle id="front-wheel-rim" cx="428.837" cy="636.658" r="15.803" style="fill:rgb(66,80,70);"/>
                <circle id="front-wheel-cap" cx="428.837" cy="636.658" r="5.47" style="fill:rgb(116,133,119);"/>
            </g>
        </g>
    </g>
</svg>
