<?xml version="1.0" encoding="UTF-8" standalone="no"?>
<svg
   xmlns:dc="http://purl.org/dc/elements/1.1/"
   xmlns:cc="http://creativecommons.org/ns#"
   xmlns:rdf="http://www.w3.org/1999/02/22-rdf-syntax-ns#"
   xmlns:svg="http://www.w3.org/2000/svg"
   xmlns="http://www.w3.org/2000/svg"
   xmlns:sodipodi="http://sodipodi.sourceforge.net/DTD/sodipodi-0.dtd"
   xmlns:inkscape="http://www.inkscape.org/namespaces/inkscape"
   height="22.5"
   width="20"
   inkscape:version="1.0beta1 (32d4812, 2019-09-19)"
   sodipodi:docname="icon-bin-solid.svg"
   id="svg1475"
   y="0px"
   x="0px"
   version="1.1"
   viewBox="0 0 20 22.5">
  <metadata
     id="metadata1481">
    <rdf:RDF>
      <cc:Work
         rdf:about="">
        <dc:format>image/svg+xml</dc:format>
        <dc:type
           rdf:resource="http://purl.org/dc/dcmitype/StillImage" />
        <dc:title>048 - Bin </dc:title>
      </cc:Work>
    </rdf:RDF>
  </metadata>
  <defs
     id="defs1479" />
  <sodipodi:namedview
     fit-margin-bottom="0"
     fit-margin-right="0"
     fit-margin-left="0"
     fit-margin-top="0"
     inkscape:current-layer="svg1475"
     inkscape:window-maximized="0"
     inkscape:window-y="118"
     inkscape:window-x="2054"
     inkscape:cy="-10.062882"
     inkscape:cx="-5.6664366"
     inkscape:zoom="13.368728"
     showgrid="false"
     id="namedview1477"
     inkscape:window-height="1240"
     inkscape:window-width="1399"
     inkscape:pageshadow="2"
     inkscape:pageopacity="0"
     guidetolerance="10"
     gridtolerance="10"
     objecttolerance="10"
     borderopacity="1"
     inkscape:document-rotation="0"
     bordercolor="#666666"
     pagecolor="#ffffff" />
  <title
     id="title1447">048 - Bin </title>
  <desc
     id="desc1449">Created with Sketch.</desc>
  <path
     inkscape:connector-curvature="0"
     d="m 16.444444,19.879811 a 0.88888889,0.86433963 0 0 1 -0.888888,0.86434 0.88888889,0.86433963 0 0 1 -0.888889,-0.86434 0.88888889,0.86433963 0 0 1 0.888889,-0.864339 0.88888889,0.86433963 0 0 1 0.888888,0.864339 M 15.4,16.431096 15.982222,3.457359 H 1.7955556 l 0.8,17.775144 c 0.028099,0.693562 0.6150765,1.241422 1.3288888,1.240327 H 13.213333 C 12.120353,21.544609 11.719364,20.062466 12.201107,18.731416 12.68285,17.400367 13.950076,16.489106 15.4,16.431096 Z M 19.555556,0.86434 h -1.333334 v 0.864339 h 1.333334 C 19.801016,1.728679 20,1.53519 20,1.296509 20,1.057829 19.801016,0.86434 19.555556,0.86434 Z m -3.746667,16.435418 h -0.0044 c -0.08266,-0.0087 -0.165744,-0.01307 -0.248888,-0.01296 -1.455731,-0.0074 -2.65148,1.116239 -2.693568,2.531193 -0.04209,1.414953 1.084873,2.603947 2.538611,2.678346 1.453739,0.07439 2.702829,-0.992992 2.813724,-2.404424 0.110895,-1.411432 -0.956945,-2.650946 -2.405434,-2.792151 z m -0.253333,4.308733 c -0.98184,0 -1.777778,-0.773956 -1.777778,-1.72868 0,-0.954723 0.795938,-1.728679 1.777778,-1.728679 0.981839,0 1.777777,0.773956 1.777777,1.728679 1.29e-4,0.458514 -0.187131,0.898282 -0.520557,1.222499 -0.333426,0.324218 -0.785685,0.506306 -1.25722,0.506181 z M 16.888889,2.593019 c 0.245392,-1.6e-4 0.44428,-0.193555 0.444444,-0.43217 V 1.728679 H 0.44444444 C 0.19898456,1.728679 0,1.922168 0,2.160849 0,2.39953 0.19898456,2.593019 0.44444444,2.593019 Z M 17.333333,0.43217 C 17.333169,0.193555 17.134281,1.6e-4 16.888889,0 H 2.6666667 C 2.1017749,6.78e-4 1.5983625,0.346731 1.4092889,0.86434 H 17.333333 Z"
     id="bin" />
</svg>
