<?xml version="1.0" encoding="UTF-8" standalone="no"?>
<svg
   xmlns:dc="http://purl.org/dc/elements/1.1/"
   xmlns:cc="http://creativecommons.org/ns#"
   xmlns:rdf="http://www.w3.org/1999/02/22-rdf-syntax-ns#"
   xmlns:svg="http://www.w3.org/2000/svg"
   xmlns="http://www.w3.org/2000/svg"
   xmlns:sodipodi="http://sodipodi.sourceforge.net/DTD/sodipodi-0.dtd"
   xmlns:inkscape="http://www.inkscape.org/namespaces/inkscape"
   sodipodi:docname="icon-bundle-solid.svg"
   inkscape:version="1.0beta1 (32d4812, 2019-09-19)"
   id="svg8"
   version="1.1"
   viewBox="0 0 210 297"
   height="297mm"
   width="210mm">
  <defs
     id="defs2" />
  <sodipodi:namedview
     inkscape:window-maximized="0"
     inkscape:window-y="25"
     inkscape:window-x="0"
     inkscape:window-height="847"
     inkscape:window-width="1440"
     showgrid="false"
     inkscape:document-rotation="0"
     inkscape:current-layer="layer1"
     inkscape:document-units="mm"
     inkscape:cy="-75.023486"
     inkscape:cx="73.942567"
     inkscape:zoom="3.2699858"
     inkscape:pageshadow="2"
     inkscape:pageopacity="0.0"
     borderopacity="1.0"
     bordercolor="#666666"
     pagecolor="#ffffff"
     id="base" />
  <metadata
     id="metadata5">
    <rdf:RDF>
      <cc:Work
         rdf:about="">
        <dc:format>image/svg+xml</dc:format>
        <dc:type
           rdf:resource="http://purl.org/dc/dcmitype/StillImage" />
        <dc:title></dc:title>
      </cc:Work>
    </rdf:RDF>
  </metadata>
  <g
     id="layer1"
     inkscape:groupmode="layer"
     inkscape:label="Layer 1">
    <path
       d="m 8.4320383,16.705545 h 6.3646887 v 2.749429 H 8.4320383 Z m -6.9849352,0 H 7.811792 v 2.749429 H 1.4471031 Z M 8.4320383,13.38895 h 6.3646887 v 2.749429 H 8.4320383 Z m -6.9849352,0 H 7.811792 v 2.749429 H 1.4471031 Z m 6.9849352,-3.316594 h 6.3646887 v 2.749429 H 8.4320383 Z m -6.9849352,0 H 7.811792 v 2.749429 H 1.4471031 Z M 8.4320383,6.7557607 h 6.3646887 v 2.749429 H 8.4320383 Z m -6.9849352,0 H 7.811792 v 2.749429 H 1.4471031 Z M 8.4320383,3.4391661 h 6.3646887 v 2.749429 H 8.4320383 Z m -6.9849352,0 H 7.811792 v 2.749429 H 1.4471031 Z M 8.4320383,0.12257165 H 14.796727 V 2.8720006 H 8.4320383 Z m -6.9849352,0 H 7.811792 V 2.8720006 H 1.4471031 Z"
       transform="scale(1,-1)"
       style="opacity:1;fill:none;stroke:#000000;stroke-width:0.248373;stroke-linejoin:round;stroke-opacity:1;stop-color:#000000"
       id="rect119" />
  </g>
</svg>
