<?xml version="1.0" encoding="UTF-8" standalone="no"?>
<svg
   xmlns:dc="http://purl.org/dc/elements/1.1/"
   xmlns:cc="http://creativecommons.org/ns#"
   xmlns:rdf="http://www.w3.org/1999/02/22-rdf-syntax-ns#"
   xmlns:svg="http://www.w3.org/2000/svg"
   xmlns="http://www.w3.org/2000/svg"
   xmlns:sodipodi="http://sodipodi.sourceforge.net/DTD/sodipodi-0.dtd"
   xmlns:inkscape="http://www.inkscape.org/namespaces/inkscape"
   sodipodi:docname="iso-bin.svg"
   inkscape:version="1.0beta1 (32d4812, 2019-09-19)"
   id="svg36"
   version="1.1"
   viewBox="0 0 50 64.736229"
   height="64.736229mm"
   width="50mm">
  <defs
     id="defs30" />
  <sodipodi:namedview
     fit-margin-bottom="0"
     fit-margin-right="0"
     fit-margin-left="0"
     fit-margin-top="0"
     inkscape:window-maximized="0"
     inkscape:window-y="100"
     inkscape:window-x="1440"
     inkscape:window-height="1312"
     inkscape:window-width="1117"
     showgrid="false"
     inkscape:document-rotation="0"
     inkscape:current-layer="g178"
     inkscape:document-units="mm"
     inkscape:cy="182.10421"
     inkscape:cx="-81.426361"
     inkscape:zoom="1.1667669"
     inkscape:pageshadow="2"
     inkscape:pageopacity="0.0"
     borderopacity="1.0"
     bordercolor="#666666"
     pagecolor="#ffffff"
     id="base" />
  <metadata
     id="metadata33">
    <rdf:RDF>
      <cc:Work
         rdf:about="">
        <dc:format>image/svg+xml</dc:format>
        <dc:type
           rdf:resource="http://purl.org/dc/dcmitype/StillImage" />
        <dc:title></dc:title>
      </cc:Work>
    </rdf:RDF>
  </metadata>
  <g
     id="layer1"
     inkscape:groupmode="layer"
     inkscape:label="Layer 1" />
  <g
     id="g178">
    <path
       id="path166"
       style="fill:none;stroke:#000000;stroke-width:0.249928;stroke-linecap:butt;stroke-linejoin:miter;stroke-opacity:1"
       d="m 9.8056511,52.838831 c 2.8199559,-0.0758 4.5656739,2.8318 4.1587749,5.13394 -0.179601,1.04317 -1.119559,2.14946 -3.205917,2.14345 -1.4240509,-0.0327 -2.9444019,-2.00285 -3.1586679,-3.4116 -0.235033,-1.54156 0.343944,-3.72867 2.20581,-3.86579 z m -0.713871,-1.51409 c 2.5841029,-0.81046 5.6768679,-0.22333 7.2981599,3.13123 1.22596,3.53753 -1.004204,6.22794 -3.039917,6.5359 m -7.0669299,-4.58379 c -0.274568,-2.71005 1.131458,-4.86595 3.102573,-5.14357 5.3812609,-0.34407 7.1376579,6.31884 5.4242469,8.51197 -1.529437,1.73476 -2.7755,1.67255 -3.913183,1.65381 -2.5221359,-0.004 -4.3955389,-2.80435 -4.6136369,-5.02221 z m 9.3321959,3.2951 8.371807,4.31471 c 1.432747,0.8149 2.760522,0.70681 3.863912,0.1932 l 12.686509,-6.76185 c 0.889575,-0.46994 1.710422,-1.60225 1.996354,-3.54192 L 47.428158,19.454117 M 26.752591,30.174645 26.33825,64.642421 M 4.8607381,19.132123 9.1510431,51.253341 M 24.927625,0.88563358 c -0.849838,-1.053831 -1.988796,-0.956854 -2.838634,-0.05256 L 20.801092,0.33367858 0.86834111,11.552743 c -1.20544,0.747023 -0.82168,2.21478 0.26852799,2.291441 -0.02689,0.463182 -0.100332,1.807992 -0.100332,1.807992 l 2.304195,1.165859 0.01552,1.57101 20.6777239,11.145771 c 1.593458,0.743801 3.150119,0.862053 4.652207,0.05257 L 47.55785,19.415605 c 0.59329,-0.411723 1.0313,-1.095188 1.103913,-2.418097 1.023306,-0.770873 1.407832,-1.872903 1.124112,-3.153647 m -43.1654209,-1.041425 0.157702,1.011376 16.8501309,9.144275 c 0.973202,0.557378 3.204283,0.787955 4.815532,0.200274 l 17.103625,-9.221823 c 0.486358,-0.312923 0.184926,-2.145316 0.184926,-2.145316 M 27.259942,0.77923058 6.8970751,12.138176 c -0.346623,0.263734 -0.395511,0.579156 0.124105,0.868733 l 16.7541519,8.935549 c 1.73093,0.810016 3.749876,0.533833 5.460614,-0.24821 l 15.389,-8.190919 c 1.180272,-0.626781 1.696712,-2.216808 0.142681,-3.335221 z M 26.304258,1.4406466 25.156641,0.79211758 2.9257201,13.006909 c -0.763181,0.582249 -0.392228,0.975475 0,1.365155 l 21.2219269,11.29354 c 1.44789,0.561728 2.932708,0.62695 4.343671,0.124105 L 49.085407,14.921051 c 0.55662,-0.545712 1.006976,-1.264977 0.310815,-1.951032 l -3.705108,-1.719938"
       inkscape:connector-curvature="0" />
  </g>
</svg>
