<?xml version="1.0" encoding="UTF-8" standalone="no"?>
<svg
   xmlns:dc="http://purl.org/dc/elements/1.1/"
   xmlns:cc="http://creativecommons.org/ns#"
   xmlns:rdf="http://www.w3.org/1999/02/22-rdf-syntax-ns#"
   xmlns:svg="http://www.w3.org/2000/svg"
   xmlns="http://www.w3.org/2000/svg"
   xmlns:sodipodi="http://sodipodi.sourceforge.net/DTD/sodipodi-0.dtd"
   xmlns:inkscape="http://www.inkscape.org/namespaces/inkscape"
   id="svg7143"
   version="1.1"
   x="0px"
   y="0px"
   viewBox="0 0 50 40.522694"
   xml:space="preserve"
   sodipodi:docname="material-textiles.svg"
   width="50"
   height="40.522694"
   inkscape:version="1.0beta1 (32d4812, 2019-09-19)"><metadata
   id="metadata2550">
  <rdf:RDF>
    <cc:Work
   rdf:about="">
      <dc:format>image/svg+xml</dc:format>

      <dc:type
   rdf:resource="http://purl.org/dc/dcmitype/StillImage" />

    <dc:title></dc:title>
</cc:Work>

  </rdf:RDF>

</metadata>


  <defs
   id="defs7136" />


  <sodipodi:namedview
   fit-margin-bottom="0"
   fit-margin-right="0"
   fit-margin-left="0"
   fit-margin-top="0"
   pagecolor="#ffffff"
   bordercolor="#666666"
   inkscape:document-rotation="0"
   borderopacity="1"
   objecttolerance="10"
   gridtolerance="10"
   guidetolerance="10"
   inkscape:pageopacity="0"
   inkscape:pageshadow="2"
   id="namedview843"
   showgrid="false"
   inkscape:current-layer="svg7143"
   inkscape:window-maximized="0"
   inkscape:window-y="153"
   inkscape:window-x="1542"
   inkscape:window-height="941"
   inkscape:window-width="1854"
   inkscape:cy="35.847592"
   inkscape:cx="-27.600944"
   inkscape:zoom="6.7511544" />


  <path
   inkscape:connector-curvature="0"
   d="m 32.766344,0.00224526 c -0.1156,-0.0065 -0.232274,0.0011 -0.344561,0.02297 -2.481616,0.427163 -4.957424,0.641266 -7.427218,0.641266 -2.447633,0.01015 -4.908537,-0.204148 -7.388935,-0.641266 -0.06373,-0.01274 -0.145512,-0.02106 -0.262249,-0.02106 -0.153553,0 -0.330677,0.02144 -0.501529,0.101454 L 0.80059336,6.4493723 c -0.586921,0.234768 -0.915336,0.860071 -0.763778,1.466301 L 2.1252414,17.452374 c 0.136145,0.680728 0.799065,1.095923 1.464387,0.962859 l 6.364819,-1.324649 v 22.166803 c 0,0.692395 0.5729106,1.265307 1.2653066,1.265307 H 38.7866 c 0.692396,0 1.246166,-0.572913 1.246166,-1.265307 v -22.1668 l 6.383961,1.324649 c 0.663786,0.132755 1.331696,-0.289832 1.4663,-0.962859 l 2.088428,-9.5768987 c 0.134351,-0.604574 -0.219749,-1.195302 -0.763778,-1.426102 L 33.105163,0.08455626 v -0.01914 c -0.10796,-0.03599 -0.223218,-0.05666 -0.338819,-0.063171 z M 18.970477,2.7147103 c 2.00295,0.268727 4.011862,0.46133 6.024088,0.46133 2.022372,0 4.021055,-0.197735 6.022172,-0.46133 -0.287223,1.120391 -0.678374,2.213847 -1.485444,3.013001 -1.154143,1.154143 -2.765617,1.866375 -4.536728,1.866375 -1.760122,0 -3.363443,-0.712231 -4.517586,-1.866375 -0.807429,-0.799513 -1.219424,-1.891997 -1.506502,-3.013001 z m -2.549756,0.241194 c 0.356981,1.731686 1.072823,3.360652 2.289421,4.557785 1.619124,1.608257 3.839305,2.5899547 6.284423,2.5899547 2.445118,0 4.683662,-0.9809257 6.303563,-2.5899547 1.20445,-1.194737 1.902958,-2.831405 2.268365,-4.557785 l 13.713552,5.44216 -1.584983,7.3066207 -6.546672,-1.364847 -0.05934,-0.01914 c -0.102594,-0.02693 -0.200441,-0.04019 -0.302448,-0.04019 -0.684429,0 -1.263393,0.57686 -1.263393,1.265306 V 37.99208 H 12.46592 V 15.545803 c 0,-0.03916 0.006,-0.149314 -0.02105,-0.262249 -0.0013,-0.0064 -0.01781,0.0064 -0.01914,0 -0.143181,-0.660854 -0.79778,-1.113276 -1.466301,-0.962859 l -6.6653536,1.38399 -1.567756,-7.3066207 z"
   style="color:#000000;font-style:normal;font-variant:normal;font-weight:normal;font-stretch:normal;font-size:medium;line-height:normal;font-family:sans-serif;font-variant-ligatures:normal;font-variant-position:normal;font-variant-caps:normal;font-variant-numeric:normal;font-variant-alternates:normal;font-variant-east-asian:normal;font-feature-settings:normal;font-variation-settings:normal;text-indent:0;text-align:start;text-decoration:none;text-decoration-line:none;text-decoration-style:solid;text-decoration-color:#000000;letter-spacing:normal;word-spacing:normal;text-transform:none;writing-mode:lr-tb;direction:ltr;text-orientation:mixed;dominant-baseline:auto;baseline-shift:baseline;text-anchor:start;white-space:normal;shape-padding:0;shape-margin:0;inline-size:0;clip-rule:nonzero;display:inline;overflow:visible;visibility:visible;opacity:1;isolation:auto;mix-blend-mode:normal;color-interpolation:sRGB;color-interpolation-filters:linearRGB;solid-color:#000000;solid-opacity:1;vector-effect:none;fill:#000000;fill-opacity:1;fill-rule:nonzero;stroke:none;stroke-width:0.980086;stroke-linecap:butt;stroke-linejoin:miter;stroke-miterlimit:4;stroke-dasharray:none;stroke-dashoffset:0;stroke-opacity:1;color-rendering:auto;image-rendering:auto;shape-rendering:auto;text-rendering:auto;enable-background:accumulate;stop-color:#000000;stop-opacity:1"
   id="path6502" />


</svg>
