<?xml version="1.0" encoding="UTF-8" standalone="no"?>
<svg
   xmlns:dc="http://purl.org/dc/elements/1.1/"
   xmlns:cc="http://creativecommons.org/ns#"
   xmlns:rdf="http://www.w3.org/1999/02/22-rdf-syntax-ns#"
   xmlns:svg="http://www.w3.org/2000/svg"
   xmlns="http://www.w3.org/2000/svg"
   xmlns:sodipodi="http://sodipodi.sourceforge.net/DTD/sodipodi-0.dtd"
   xmlns:inkscape="http://www.inkscape.org/namespaces/inkscape"
   id="svg913"
   version="1.1"
   x="0px"
   y="0px"
   viewBox="0 0 50.000004 40.564335"
   xml:space="preserve"
   sodipodi:docname="material-organics.svg"
   width="50.000004"
   height="40.564335"
   inkscape:version="1.0beta1 (32d4812, 2019-09-19)"><metadata
   id="metadata846">
  <rdf:RDF>
    <cc:Work
   rdf:about="">
      <dc:format>image/svg+xml</dc:format>

      <dc:type
   rdf:resource="http://purl.org/dc/dcmitype/StillImage" />

    <dc:title></dc:title>
</cc:Work>

  </rdf:RDF>

</metadata>


  <defs
   id="defs908" />


  <sodipodi:namedview
   fit-margin-bottom="0"
   fit-margin-right="0"
   fit-margin-left="0"
   fit-margin-top="0"
   inkscape:current-layer="svg913"
   pagecolor="#ffffff"
   bordercolor="#666666"
   inkscape:document-rotation="0"
   borderopacity="1"
   objecttolerance="10"
   gridtolerance="10"
   guidetolerance="10"
   inkscape:pageopacity="0"
   inkscape:pageshadow="2"
   inkscape:window-width="1440"
   inkscape:window-height="847"
   id="namedview843"
   showgrid="false"
   inkscape:zoom="4.9346607"
   inkscape:cx="-17.567674"
   inkscape:cy="12.362619"
   inkscape:window-x="2367"
   inkscape:window-y="169"
   inkscape:window-maximized="0" />


  <path
   d="M 49.692596,0.599609 C 49.457749,0.314795 49.113687,0.139909 48.744642,0.117067 48.668262,0.112067 46.82375,0 44.034853,0 28.472847,0 22.124126,3.081564 19.538667,5.667736 c -5.938274,5.937561 -4.865401,14.581216 -4.347881,17.280172 -0.832315,1.031471 -1.569692,2.046524 -2.226407,3.036593 -0.48754,-0.438286 -1.086435,-1.015767 -1.711742,-1.710314 0.925111,-0.650291 1.601813,-1.531146 1.982994,-2.614726 C 14.4013,18.34305 12.536086,14.140788 11.386835,12.382647 10.129083,10.460328 9.8514068,5.405764 9.8506928,3.619784 c 0,-0.51752 -0.299091,-0.989355 -0.767357,-1.209925 -0.468266,-0.220571 -1.022191,-0.152044 -1.421931,0.177027 -6.96189297,5.733408 -8.963446,14.065837 -6.87623397,18.809176 1.20421497,2.736788 3.34282197,4.243664 6.02107697,4.243664 0.73238,0 1.379102,-0.113498 1.875921,-0.239844 1.062165,1.275598 2.1278992,2.274233 2.8588512,2.903823 -3.3506742,5.946126 -3.7211472,10.486739 -3.7447032,10.83437 -0.04997,0.735949 0.505385,1.371963 1.241334,1.423359 0.03141,0.0021 0.06353,0.0029 0.09494,0.0029 0.695262,0 1.2820222,-0.538221 1.3334172,-1.242048 0.0029,-0.03641 0.297663,-3.716151 2.893829,-8.702188 0.876572,-1.682476 2.09435,-3.648338 3.757552,-5.744115 2.387017,0.43543 4.697655,0.668136 6.869811,0.668136 22.703068,0 25.971653,-23.683857 26.001633,-23.922987 0.04783,-0.366904 -0.05925,-0.736663 -0.296235,-1.021478 z M 6.8055338,22.963612 c -1.619659,0 -2.787469,-0.865151 -3.570531,-2.64542 -1.733156,-3.94029 0.543218,-9.694399 4.07663,-13.676091 0.197015,2.335622 0.675274,5.43289 1.834519,7.20602 1.0050592,1.53757 2.3192032,4.776889 1.5639812,6.923347 -0.208436,0.592472 -0.577481,1.051458 -1.1107052,1.391951 -0.780206,-1.164242 -1.441917,-2.474103 -1.740294,-3.859629 -0.155613,-0.722386 -0.869434,-1.183514 -1.590393,-1.02576 -0.722386,0.155613 -1.182087,0.868006 -1.026474,1.590392 0.316936,1.471899 0.93796,2.849573 1.686758,4.089479 -0.0414,0.0021 -0.08066,0.0057 -0.123491,0.0057 z M 43.350299,12.135665 c -5.091683,8.404526 -13.284917,11.928658 -24.197809,10.368246 2.748924,-2.967352 6.417963,-6.078897 11.301924,-8.957736 0.637442,-0.37547 0.848019,-1.19565 0.472549,-1.832378 -0.374042,-0.637441 -1.196363,-0.848732 -1.831663,-0.473263 -4.886817,2.880981 -8.648652,5.981104 -11.553189,9.03126 -0.267683,-3.308559 7.14e-4,-8.822824 3.889609,-12.711719 3.102979,-3.103693 11.341898,-4.883247 22.603847,-4.883247 1.215636,0 2.256387,0.02213 3.03231,0.04711 -0.431148,1.974428 -1.47047,5.700572 -3.717578,9.411725 z"
   id="path843"
   inkscape:connector-curvature="0" />


</svg>
