<?xml version="1.0" encoding="UTF-8" standalone="no"?>
<svg
   xmlns:dc="http://purl.org/dc/elements/1.1/"
   xmlns:cc="http://creativecommons.org/ns#"
   xmlns:rdf="http://www.w3.org/1999/02/22-rdf-syntax-ns#"
   xmlns:svg="http://www.w3.org/2000/svg"
   xmlns="http://www.w3.org/2000/svg"
   xmlns:sodipodi="http://sodipodi.sourceforge.net/DTD/sodipodi-0.dtd"
   xmlns:inkscape="http://www.inkscape.org/namespaces/inkscape"
   inkscape:version="1.0beta1 (32d4812, 2019-09-19)"
   height="50"
   width="50"
   sodipodi:docname="other-icon.svg"
   xml:space="preserve"
   viewBox="0 0 50 50"
   y="0px"
   x="0px"
   version="1.1"
   id="svg2293"><metadata
   id="metadata1415">
  <rdf:RDF>
    <cc:Work
   rdf:about="">
      <dc:format>image/svg+xml</dc:format>

      <dc:type
   rdf:resource="http://purl.org/dc/dcmitype/StillImage" />

    <dc:title></dc:title>
</cc:Work>

  </rdf:RDF>

</metadata>


  <defs
   id="defs2288" />


  <sodipodi:namedview
   inkscape:current-layer="svg2293"
   inkscape:window-maximized="0"
   inkscape:window-y="25"
   inkscape:window-x="706"
   inkscape:window-height="941"
   inkscape:window-width="1854"
   inkscape:cy="19.449497"
   inkscape:cx="-116.75999"
   inkscape:zoom="4.7509576"
   id="namedview1410"
   inkscape:document-rotation="0"
   showgrid="false" />


  

<path
   id="path3684"
   d="M 20,-18 H -2.000042 V -3.3335853 L -7.000147,-11.666814 -20,10.000168 h 14.4144144 c 1.3062013,4.616225 5.55114557,8.000168 10.5852706,8.000168 6.074466,0 11.000231,-4.926185 11.000231,-10.999811 0,-1.040341 -0.1449,-2.046662 -0.41454,-3.000483 H 20 Z m -36.468636,26.000126 9.468489,-15.7789958 4.2092442,7.01442704 C -6.0656461,2.5212205 -6.0979861,6.4112644 -5.954346,8.000126 Z m 21.468321,8.000168 c -4.96272496,0 -8.999769,-4.037464 -8.999769,-9.000189 0,-4.962725 4.03704404,-9.000189 8.999769,-9.000189 4.962725,0 9.000189,4.037044 9.000189,9.000189 0,4.962305 -4.037044,9.000189 -9.000189,9.000189 z M 17.999958,2 H 14.799975 C 12.978853,-1.5611836 9.2736093,-3.999706 4.999685,-3.999706 3.1995632,-3.999706 1.5002415,-3.5671056 0,-2.8001848 V -16.000378 h 17.999958 z"
   inkscape:connector-curvature="0"
   style="opacity:1;stroke-width:0.42;stop-opacity:1" />
</svg>
