<?xml version="1.0" encoding="UTF-8" standalone="no"?>
<svg
   xmlns:dc="http://purl.org/dc/elements/1.1/"
   xmlns:cc="http://creativecommons.org/ns#"
   xmlns:rdf="http://www.w3.org/1999/02/22-rdf-syntax-ns#"
   xmlns:svg="http://www.w3.org/2000/svg"
   xmlns="http://www.w3.org/2000/svg"
   xmlns:sodipodi="http://sodipodi.sourceforge.net/DTD/sodipodi-0.dtd"
   xmlns:inkscape="http://www.inkscape.org/namespaces/inkscape"
   id="svg1604"
   version="1.1"
   x="0px"
   y="0px"
   viewBox="0 0 40.551136 45"
   xml:space="preserve"
   sodipodi:docname="material-paper-and-cardboard.svg"
   width="40.551136"
   height="45"
   inkscape:version="1.0beta1 (32d4812, 2019-09-19)"><metadata
   id="metadata3133">
  <rdf:RDF>
    <cc:Work
   rdf:about="">
      <dc:format>image/svg+xml</dc:format>

      <dc:type
   rdf:resource="http://purl.org/dc/dcmitype/StillImage" />

    <dc:title></dc:title>
</cc:Work>

  </rdf:RDF>

</metadata>


  <defs
   id="defs1589">
      
      
      
      
      
      
      
      
      
    </defs>


  <sodipodi:namedview
   fit-margin-bottom="0"
   fit-margin-right="0"
   fit-margin-left="0"
   fit-margin-top="0"
   inkscape:current-layer="g2195"
   pagecolor="#ffffff"
   bordercolor="#666666"
   inkscape:document-rotation="0"
   borderopacity="1"
   objecttolerance="10"
   gridtolerance="10"
   guidetolerance="10"
   inkscape:pageopacity="0"
   inkscape:pageshadow="2"
   inkscape:window-width="1854"
   inkscape:window-height="941"
   id="namedview843"
   showgrid="false"
   inkscape:zoom="5.7983186"
   inkscape:cx="-63.836804"
   inkscape:cy="25.43903"
   inkscape:window-x="1826"
   inkscape:window-y="25"
   inkscape:window-maximized="0" />


  <g
   id="g2195">
    
    
    
    
    
    
    
    <path
   id="path3129"
   d="m 19.994318,9.869318 h 7.261364 c 0.5625,0 1.022727,-0.460227 1.022727,-1.022727 0,-0.5625 -0.460227,-1.022727 -1.022727,-1.022727 h -7.261364 c -0.5625,0 -1.022727,0.460227 -1.022727,1.022727 0,0.5625 0.409091,1.022727 1.022727,1.022727 z m 0,-3.630682 h 7.261364 c 0.5625,0 1.022727,-0.460227 1.022727,-1.022727 0,-0.5625 -0.460227,-1.022727 -1.022727,-1.022727 h -7.261364 c -0.5625,0 -1.022727,0.460227 -1.022727,1.022727 0,0.5625 0.409091,1.022727 1.022727,1.022727 z m 6.034091,24.085228 c 0,-0.5625 -0.460227,-1.022728 -1.022727,-1.022728 H 4.909091 c -0.5625,0 -1.022727,0.460228 -1.022727,1.022728 0,0.5625 0.460227,1.022727 1.022727,1.022727 h 20.096591 c 0.5625,0 1.022727,-0.460227 1.022727,-1.022727 z M 4.909091,27.153409 h 20.096591 c 0.5625,0 1.022727,-0.460227 1.022727,-1.022727 0,-0.5625 -0.460227,-1.022727 -1.022727,-1.022727 H 4.909091 c -0.5625,0 -1.022727,0.460227 -1.022727,1.022727 0,0.5625 0.460227,1.022727 1.022727,1.022727 z m 0,-4.193182 h 20.096591 c 0.5625,0 1.022727,-0.460227 1.022727,-1.022727 0,-0.5625 -0.460227,-1.022727 -1.022727,-1.022727 H 4.909091 c -0.5625,0 -1.022727,0.460227 -1.022727,1.022727 0,0.5625 0.460227,1.022727 1.022727,1.022727 z m 0,-4.193182 h 20.096591 c 0.5625,0 1.022727,-0.460227 1.022727,-1.022727 0,-0.5625 -0.460227,-1.022727 -1.022727,-1.022727 H 4.909091 c -0.5625,0 -1.022727,0.460227 -1.022727,1.022727 0,0.5625 0.460227,1.022727 1.022727,1.022727 z m 0,-4.193181 h 8.079545 c 0.5625,0 1.022727,-0.460228 1.022727,-1.022728 V 5.471591 c 0,-0.5625 -0.460227,-1.022727 -1.022727,-1.022727 H 4.909091 c -0.5625,0 -1.022727,0.460227 -1.022727,1.022727 v 8.079545 c 0,0.5625 0.460227,1.022728 1.022727,1.022728 z M 5.931818,6.494318 h 6.034091 v 6.034091 H 5.931818 Z M 7.721591,45 h 31.806818 c 0.5625,0 1.022727,-0.460227 1.022727,-1.022727 V 6.596591 c 0,-0.5625 -0.460227,-1.022727 -1.022727,-1.022727 H 33.801136 V 1.022727 C 33.801136,0.460227 33.340909,0 32.778409,0 H 1.022727 C 0.460227,0 0,0.460227 0,1.022727 v 37.380682 c 0,0.5625 0.460227,1.022727 1.022727,1.022727 h 5.676136 v 4.551137 C 6.698863,44.539773 7.107954,45 7.721591,45 Z M 38.454545,7.619318 V 42.954546 H 8.744318 v -3.52841 h 24.085227 c 0.5625,0 1.022728,-0.460227 1.022728,-1.022727 V 7.619318 Z M 2.045454,2.045455 H 31.806818 V 37.380682 H 2.045454 Z"
   inkscape:connector-curvature="0" />


  </g>


</svg>
