<?xml version="1.0" encoding="UTF-8" standalone="no"?>
<svg
   xmlns:dc="http://purl.org/dc/elements/1.1/"
   xmlns:cc="http://creativecommons.org/ns#"
   xmlns:rdf="http://www.w3.org/1999/02/22-rdf-syntax-ns#"
   xmlns:svg="http://www.w3.org/2000/svg"
   xmlns="http://www.w3.org/2000/svg"
   xmlns:sodipodi="http://sodipodi.sourceforge.net/DTD/sodipodi-0.dtd"
   xmlns:inkscape="http://www.inkscape.org/namespaces/inkscape"
   inkscape:version="1.0beta1 (32d4812, 2019-09-19)"
   height="50"
   width="21.126541"
   sodipodi:docname="material-plastics.svg"
   xml:space="preserve"
   viewBox="0 0 21.126541 50"
   y="0px"
   x="0px"
   version="1.1"
   id="svg2293"><metadata
   id="metadata1415">
  <rdf:RDF>
    <cc:Work
   rdf:about="">
      <dc:format>image/svg+xml</dc:format>

      <dc:type
   rdf:resource="http://purl.org/dc/dcmitype/StillImage" />

    <dc:title></dc:title>
</cc:Work>

  </rdf:RDF>

</metadata>


  <defs
   id="defs2288" />


  <sodipodi:namedview
   fit-margin-bottom="0"
   fit-margin-right="0"
   fit-margin-left="0"
   fit-margin-top="0"
   inkscape:current-layer="svg2293"
   inkscape:window-maximized="0"
   inkscape:window-y="25"
   inkscape:window-x="1826"
   inkscape:window-height="941"
   inkscape:window-width="1854"
   inkscape:cy="-6.4717759"
   inkscape:cx="24.329129"
   inkscape:zoom="5.1210814"
   id="namedview1410"
   inkscape:document-rotation="0"
   showgrid="false" />


  <path
   d="M 6.657021,0 C 5.590266,0 4.718363,0.872216 4.718363,1.938657 v 3.854167 c 0,0.609342 0.331274,1.10015 0.773534,1.454475 L 0.308642,11.869213 C 0.112851,12.044703 0,12.295694 0,12.5598 v 5.673225 c 0,1.23759 0.666383,2.279729 1.606867,2.94753 C 0.654736,21.994038 0,23.155166 0,24.502315 0,25.963013 0.765433,27.205176 1.859567,28.013117 0.766077,28.821221 -9.9999216e-7,30.061794 0,31.521991 0,32.982574 0.765607,34.224822 1.859567,35.032793 0.765607,35.840765 -1.9999922e-6,37.083013 0,38.543596 0,40.003793 0.76607,41.244469 1.859567,42.052469 0.76544,42.860515 -1.9999922e-6,44.102574 0,45.563271 0,48.006625 1.99368,50 4.436728,50 h 12.253086 c 2.443048,0 4.436728,-1.993375 4.436728,-4.436729 0,-1.460696 -0.765439,-2.702756 -1.859567,-3.510802 1.093499,-0.808 1.859568,-2.048676 1.859567,-3.508873 0,-1.460582 -0.765606,-2.702831 -1.859567,-3.510803 1.093961,-0.807971 1.859568,-2.050219 1.859567,-3.510802 0,-1.460196 -0.766075,-2.70077 -1.859567,-3.508874 1.094135,-0.807941 1.859567,-2.050104 1.859567,-3.510802 0,-1.347149 -0.654735,-2.508278 -1.606867,-3.32176 0.940485,-0.667803 1.606868,-1.709941 1.606867,-2.94753 V 12.5598 c 0,-0.264101 -0.112843,-0.515095 -0.308642,-0.690587 L 15.634645,7.247299 c 0.44192,-0.354338 0.773534,-0.845384 0.773534,-1.454475 V 1.938657 C 16.408179,0.872216 15.536277,0 14.469521,0 Z m 0,1.851852 h 7.8125 c 0.05082,0 0.0868,0.03573 0.0868,0.08681 v 3.854167 c 0,0.05054 -0.03598,0.08873 -0.0868,0.08873 h -7.8125 c -0.05082,0 -0.08681,-0.0382 -0.08681,-0.08873 V 1.938662 c 0,-0.05107 0.03598,-0.08681 0.08681,-0.08681 z M 7.73148,7.73341 h 5.663582 l 5.879628,5.241127 v 5.258488 c 0,1.012909 -0.819651,1.832561 -1.832561,1.832561 H 16.689814 4.436728 3.684413 c -1.01291,0 -1.832561,-0.819652 -1.832561,-1.832561 V 12.974537 Z M 4.436728,21.917438 h 12.253086 c 1.427628,0 2.584876,1.157249 2.584876,2.584877 0,1.427629 -1.157248,2.584876 -2.584876,2.584876 H 4.436728 c -1.427628,0 -2.584877,-1.157247 -2.584876,-2.584876 0,-1.427628 1.157248,-2.584877 2.584876,-2.584877 z m 0,7.021605 h 12.253086 c 1.427628,0 2.584876,1.154988 2.584876,2.582948 0,1.427628 -1.157248,2.584876 -2.584876,2.584876 H 4.436728 c -1.427628,0 -2.584877,-1.157248 -2.584876,-2.584876 0,-1.427961 1.157248,-2.582948 2.584876,-2.582948 z m 0,7.019676 h 12.253086 c 1.427628,0 2.584876,1.157249 2.584876,2.584877 0,1.427629 -1.157248,2.582947 -2.584876,2.582947 H 4.436728 c -1.427628,0 -2.584876,-1.155318 -2.584876,-2.582947 0,-1.427629 1.157248,-2.584877 2.584876,-2.584877 z m 0,7.019676 h 12.253086 c 1.427628,0 2.584876,1.156916 2.584876,2.584876 0,1.427629 -1.157248,2.584877 -2.584876,2.584877 H 4.436728 c -1.427628,0 -2.584876,-1.157248 -2.584876,-2.584877 0,-1.42796 1.157248,-2.584876 2.584876,-2.584876 z"
   id="path1412"
   inkscape:connector-curvature="0" />


</svg>
