<?xml version="1.0" encoding="UTF-8" standalone="no"?>
<svg
   xmlns:dc="http://purl.org/dc/elements/1.1/"
   xmlns:cc="http://creativecommons.org/ns#"
   xmlns:rdf="http://www.w3.org/1999/02/22-rdf-syntax-ns#"
   xmlns:svg="http://www.w3.org/2000/svg"
   xmlns="http://www.w3.org/2000/svg"
   xmlns:sodipodi="http://sodipodi.sourceforge.net/DTD/sodipodi-0.dtd"
   xmlns:inkscape="http://www.inkscape.org/namespaces/inkscape"
   inkscape:version="1.0beta1 (32d4812, 2019-09-19)"
   height="50"
   width="24.999998"
   sodipodi:docname="material-metals.svg"
   xml:space="preserve"
   viewBox="0 0 24.999998 50"
   y="0px"
   x="0px"
   version="1.1"
   id="svg838">
  <defs
   id="defs833" />


  <sodipodi:namedview
   fit-margin-bottom="0"
   fit-margin-right="0"
   fit-margin-left="0"
   fit-margin-top="0"
   inkscape:window-maximized="0"
   inkscape:window-y="81"
   inkscape:window-x="2513"
   inkscape:cy="87.529293"
   inkscape:cx="2.6447946"
   inkscape:zoom="2.6185039"
   showgrid="false"
   id="namedview843"
   inkscape:window-height="847"
   inkscape:window-width="1440"
   inkscape:pageshadow="2"
   inkscape:pageopacity="0"
   guidetolerance="10"
   gridtolerance="10"
   objecttolerance="10"
   borderopacity="1"
   inkscape:document-rotation="0"
   bordercolor="#666666"
   pagecolor="#ffffff"
   inkscape:current-layer="svg838" />


  <metadata
   id="metadata868">
    <rdf:RDF>
      <cc:Work
   rdf:about="">
        <dc:title></dc:title>


      <dc:format>image/svg+xml</dc:format>

<dc:type
   rdf:resource="http://purl.org/dc/dcmitype/StillImage" />

</cc:Work>


    </rdf:RDF>


  </metadata>


  <path
   id="path2161"
   style="stroke-width:0.568182"
   d="m 3.124999,15.056819 c 0,0.471591 0.380682,0.852273 0.852273,0.852273 h 17.045455 c 0.471591,0 0.852273,-0.380682 0.852273,-0.852273 0,-0.471591 -0.380682,-0.852273 -0.852273,-0.852273 H 3.977272 c -0.471591,0 -0.852273,0.380682 -0.852273,0.852273 z M 21.022727,6.818182 h -4.6875 L 17.471591,2.840909 C 17.914773,1.340909 17.329545,0 15.767045,0 h -1.306818 c -1.5625,0 -2.528409,0.568182 -3.09659,2.272727 L 9.659091,6.818182 H 3.977273 C 3.977273,9.09091 0,13.068183 0,13.068183 v 31.818181 c 0,0 3.409091,3.125 3.409091,5.113636 h 18.181818 c 0,-1.988636 3.40909,-5.113636 3.40909,-5.113636 V 13.068183 c 0,0 -3.977272,-4.039773 -3.977272,-6.250001 z M 14.630681,1.704546 c 1.704546,0 1.136364,1.136363 0.568182,2.272727 h -2.840909 c 0.568182,-1.704546 1.136364,-2.272727 2.272727,-2.272727 z m -1.136363,3.977272 c 0.761363,0 1.232954,0.477273 1.278409,1.136364 h -3.551136 c 0.431818,-0.659091 1.511363,-1.136364 2.272727,-1.136364 z m 6.403409,42.045455 H 5.102272 L 3.40909,45.454546 h 18.181819 c -0.551136,0.693181 -1.3125,1.465909 -1.693182,2.272727 z M 2.272726,44.318182 V 13.636364 C 3.40909,12.500001 5.113635,10.795455 5.681817,9.09091 h 13.636364 c 0.568182,1.704545 2.3125,3.357954 3.409092,4.545454 V 44.318182 L 21.590909,43.75 H 3.40909 Z"
   inkscape:connector-curvature="0" />


</svg>
