<?xml version="1.0" encoding="UTF-8" standalone="no"?>
<svg
   xmlns:dc="http://purl.org/dc/elements/1.1/"
   xmlns:cc="http://creativecommons.org/ns#"
   xmlns:rdf="http://www.w3.org/1999/02/22-rdf-syntax-ns#"
   xmlns:svg="http://www.w3.org/2000/svg"
   xmlns="http://www.w3.org/2000/svg"
   xmlns:sodipodi="http://sodipodi.sourceforge.net/DTD/sodipodi-0.dtd"
   xmlns:inkscape="http://www.inkscape.org/namespaces/inkscape"
   data-name="Layer 1"
   viewBox="0 0 50 44.999855"
   x="0px"
   y="0px"
   version="1.1"
   id="svg879"
   sodipodi:docname="stream-commerical-and-industrial.svg"
   width="50"
   height="44.999855"
   inkscape:version="1.0beta1 (32d4812, 2019-09-19)">
  <defs
     id="defs883" />
  <sodipodi:namedview
     fit-margin-bottom="0"
     fit-margin-right="0"
     fit-margin-left="0"
     fit-margin-top="0"
     pagecolor="#ffffff"
     bordercolor="#666666"
     inkscape:document-rotation="0"
     borderopacity="1"
     objecttolerance="10"
     gridtolerance="10"
     guidetolerance="10"
     inkscape:pageopacity="0"
     inkscape:pageshadow="2"
     inkscape:window-width="1440"
     inkscape:window-height="847"
     id="namedview881"
     showgrid="false"
     inkscape:zoom="4.6813649"
     inkscape:cx="-31.714775"
     inkscape:cy="20.998566"
     inkscape:window-x="2342"
     inkscape:window-y="348"
     inkscape:window-maximized="0"
     inkscape:current-layer="svg879" />
  <g
     id="g1600"
     transform="translate(5.9634556e-7,-2.5000734)">
    <path
       d="m 25.000087,37.083296 h -2.499991 a 0.8333305,0.8333305 0 0 0 0,1.666661 h 2.499991 a 0.8333305,0.8333305 0 0 0 0,-1.666661 z m 20.833261,3.749987 h -2.916657 a 0.8333305,0.8333305 0 0 0 0,1.666661 h 2.916657 a 0.8333305,0.8333305 0 0 0 0,-1.666661 z m 0,-4.999983 h -2.916657 a 0.8333305,0.8333305 0 0 0 0,1.666661 h 2.916657 a 0.8333305,0.8333305 0 0 0 0,-1.666661 z M 42.083361,21.666683 a 0.83333044,0.83333044 0 0 0 0.83333,0.83333 h 2.916657 a 0.83333044,0.83333044 0 0 0 0,-1.66666 h -2.916657 a 0.83333044,0.83333044 0 0 0 -0.83333,0.83333 z m 3.749987,4.166652 h -2.916657 a 0.8333305,0.8333305 0 0 0 0,1.666661 h 2.916657 a 0.8333305,0.8333305 0 0 0 0,-1.666661 z m 0,4.999983 h -2.916657 a 0.8333305,0.8333305 0 0 0 0,1.666661 h 2.916657 a 0.8333305,0.8333305 0 0 0 0,-1.666661 z m -14.583283,6.249978 h -2.916656 a 0.8333305,0.8333305 0 0 0 0,1.666661 h 2.916656 a 0.8333305,0.8333305 0 0 0 0,-1.666661 z M 25.000087,22.083348 h -2.499991 a 0.8333305,0.8333305 0 0 0 0,1.666661 h 2.499991 a 0.8333305,0.8333305 0 0 0 0,-1.666661 z m 6.249978,0 h -2.916656 a 0.8333305,0.8333305 0 0 0 0,1.666661 h 2.916656 a 0.8333305,0.8333305 0 0 0 0,-1.666661 z m -6.249978,4.999983 h -2.499991 a 0.8333305,0.8333305 0 0 0 0,1.666661 h 2.499991 a 0.8333305,0.8333305 0 0 0 0,-1.666661 z m 6.249978,0 h -2.916656 a 0.8333305,0.8333305 0 0 0 0,1.666661 h 2.916656 a 0.8333305,0.8333305 0 0 0 0,-1.666661 z m -6.249978,4.999983 h -2.499991 a 0.83333044,0.83333044 0 0 0 0,1.66666 h 2.499991 a 0.83333044,0.83333044 0 0 0 0,-1.66666 z m 6.249978,0 h -2.916656 a 0.83333044,0.83333044 0 0 0 0,1.66666 h 2.916656 a 0.83333044,0.83333044 0 0 0 0,-1.66666 z M 8.3334782,37.916627 a 0.8333305,0.8333305 0 0 0 0,-1.666661 H 5.8334869 a 0.8333305,0.8333305 0 0 0 0,1.666661 z m 3.3333218,0 h 2.916656 a 0.8333305,0.8333305 0 0 0 0,-1.666661 H 11.6668 a 0.8333305,0.8333305 0 0 0 0,1.666661 z M 5.8334869,33.749974 h 2.4999913 a 0.83333044,0.83333044 0 0 0 0,-1.66666 H 5.8334869 a 0.83333044,0.83333044 0 0 0 0,1.66666 z m 5.8333131,0 h 2.916656 a 0.83333044,0.83333044 0 0 0 0,-1.66666 H 11.6668 a 0.83333044,0.83333044 0 0 0 0,1.66666 z M 4.4584916,10.824012 a 0.84078875,0.84078875 0 0 0 0.1249996,0.0094 1.6684109,1.6684109 0 0 1 1.6666609,1.666661 0.83333045,0.83333045 0 0 0 1.6666609,0 3.3374884,3.3374884 0 0 0 -3.1453225,-3.3280299 0.84491373,0.84491373 0 0 0 -0.094,-0.00529 A 0.97291329,0.97291329 0 0 1 3.9772016,8.8646025 0.78391394,0.78391394 0 0 1 3.7513691,8.2931045 0.82999712,0.82999712 0 0 1 4.5834912,7.5000655 h 7.4999738 a 0.83333044,0.83333044 0 0 0 0,-1.6666608 H 7.5001477 A 0.83445544,0.83445544 0 0 1 6.9056498,4.4145346 0.84453873,0.84453873 0 0 1 7.5001477,4.1667438 H 24.166757 a 0.83445544,0.83445544 0 0 1 0.594497,1.4188701 0.84453873,0.84453873 0 0 1 -0.594497,0.2477908 h -5.416648 a 0.83333044,0.83333044 0 0 0 0,1.6666608 0.83445544,0.83445544 0 0 1 0.594498,1.4188701 0.84453873,0.84453873 0 0 1 -0.594498,0.2477908 h -3.333322 a 3.3371551,3.3371551 0 0 0 -3.333322,3.3333216 0.8333305,0.8333305 0 0 0 1.666661,0 1.6684109,1.6684109 0 0 1 1.666661,-1.666661 h 3.333322 a 2.4931163,2.4931163 0 0 0 2.354158,-3.3333215 h 3.06249 a 2.4999913,2.4999913 0 0 0 0,-4.9999826 H 7.5001477 A 2.4931163,2.4931163 0 0 0 5.1459892,5.8334047 h -0.562498 a 2.4976997,2.4976997 0 0 0 -2.497158,2.3801584 2.4260332,2.4260332 0 0 0 0.6844143,1.8009519 2.6517825,2.6517825 0 0 0 1.6877441,0.809497 z M 49.16667,12.083383 H 46.458346 V 8.7500612 A 0.83333044,0.83333044 0 0 0 45.625015,7.9167308 H 39.58337 V 5.0000742 a 0.8333305,0.8333305 0 0 0 -1.666661,0 v 2.9166566 h -6.041646 a 0.83333044,0.83333044 0 0 0 -0.83333,0.8333304 v 3.3333218 h -2.708324 a 0.83333044,0.83333044 0 0 0 -0.833331,0.83333 v 4.166653 h -9.5833 a 0.83333044,0.83333044 0 0 0 -0.83333,0.83333 v 5.833313 h -1.798952 l -1.042247,-5.992854 c -8.33e-4,-0.0042 -0.504165,-2.89999 -0.504165,-2.89999 A 0.83333044,0.83333044 0 0 0 12.916796,14.166709 H 7.0834825 a 0.83333044,0.83333044 0 0 0 -0.8211221,0.690498 l -1.546578,8.892802 H 2.5001651 a 2.498283,2.498283 0 0 0 -0.8333304,4.85415 v 18.062437 a 0.83333044,0.83333044 0 0 0 0.8333304,0.833331 H 49.16667 A 0.83333044,0.83333044 0 0 0 50,46.666596 V 12.916713 a 0.83333044,0.83333044 0 0 0 -0.83333,-0.83333 z M 32.708394,9.5833916 H 44.791685 V 12.083383 H 32.708394 Z M 12.215715,15.83337 12.433131,17.083366 H 7.5671475 L 7.7845634,15.83337 Z m -4.9384415,2.916656 h 5.4458145 l 0.869664,4.999983 H 6.4076099 Z M 2.5001651,25.41667 H 17.083448 v 1.666661 H 2.5001651 a 0.8333305,0.8333305 0 0 1 0,-1.666661 z m 0.8333304,3.333322 H 17.083448 V 45.833266 H 12.916796 V 42.083279 A 0.83333044,0.83333044 0 0 0 12.083465,41.249948 H 7.916813 a 0.83333044,0.83333044 0 0 0 -0.8333305,0.833331 v 3.749987 h -3.749987 z m 5.4166479,17.083274 v -2.916657 h 2.4999916 v 2.916657 z m 16.6666086,0 v -2.916657 h 2.499992 v 2.916657 z m 4.166652,0 v -3.749987 a 0.83333044,0.83333044 0 0 0 -0.83333,-0.833331 h -4.166652 a 0.83333044,0.83333044 0 0 0 -0.833331,0.833331 v 3.749987 h -4.999982 v -27.08324 h 16.249943 v 27.08324 z m 18.749935,0 H 36.666713 v -3.333322 h 2.083326 a 0.8333305,0.8333305 0 0 0 0,-1.666661 h -2.083326 v -3.333322 h 2.083326 a 0.8333305,0.8333305 0 0 0 0,-1.666661 h -2.083326 v -3.333321 h 2.083326 a 0.8333305,0.8333305 0 0 0 0,-1.666661 h -2.083326 v -3.333322 h 2.083326 a 0.8333305,0.8333305 0 0 0 0,-1.666661 h -2.083326 v -3.333322 h 2.083326 a 0.83333044,0.83333044 0 0 0 0,-1.66666 h -2.083326 v -2.916657 a 0.83333044,0.83333044 0 0 0 -0.83333,-0.83333 h -6.666644 v -3.333322 h 19.1666 z"
       style="opacity:1;stroke-width:0.416665;stop-opacity:1"
       id="path871"
       inkscape:connector-curvature="0" />
  </g>
  <metadata
     id="metadata1602">
    <rdf:RDF>
      <cc:Work
         rdf:about="">
        <dc:title></dc:title>
        <dc:format>image/svg+xml</dc:format>
        <dc:type
           rdf:resource="http://purl.org/dc/dcmitype/StillImage" />
      </cc:Work>
    </rdf:RDF>
  </metadata>
</svg>
