<?xml version="1.0" encoding="UTF-8" standalone="no"?>
<svg
   xmlns:dc="http://purl.org/dc/elements/1.1/"
   xmlns:cc="http://creativecommons.org/ns#"
   xmlns:rdf="http://www.w3.org/1999/02/22-rdf-syntax-ns#"
   xmlns:svg="http://www.w3.org/2000/svg"
   xmlns="http://www.w3.org/2000/svg"
   xmlns:sodipodi="http://sodipodi.sourceforge.net/DTD/sodipodi-0.dtd"
   xmlns:inkscape="http://www.inkscape.org/namespaces/inkscape"
   version="1.1"
   x="0px"
   y="0px"
   viewBox="0 0 50 43.296001"
   xml:space="preserve"
   id="svg1628"
   sodipodi:docname="stream-municipal-solid-waste.svg"
   width="50"
   height="43.296001"
   inkscape:version="1.0beta1 (32d4812, 2019-09-19)">
  <metadata
   id="metadata1634">
    <rdf:RDF>
      <cc:Work
   rdf:about="">
        <dc:format>image/svg+xml</dc:format>



        <dc:type
   rdf:resource="http://purl.org/dc/dcmitype/StillImage" />



        <dc:title></dc:title>



      </cc:Work>



    </rdf:RDF>



  </metadata>



  <defs
   id="defs1632" />



  <sodipodi:namedview
   fit-margin-bottom="0"
   fit-margin-right="0"
   fit-margin-left="0"
   fit-margin-top="0"
   pagecolor="#ffffff"
   bordercolor="#666666"
   inkscape:document-rotation="0"
   borderopacity="1"
   objecttolerance="10"
   gridtolerance="10"
   guidetolerance="10"
   inkscape:pageopacity="0"
   inkscape:pageshadow="2"
   inkscape:window-width="1440"
   inkscape:window-height="847"
   id="namedview1630"
   showgrid="false"
   inkscape:zoom="0.63350086"
   inkscape:cx="-106.92648"
   inkscape:cy="255.42843"
   inkscape:window-x="2115"
   inkscape:window-y="147"
   inkscape:window-maximized="0"
   inkscape:current-layer="svg1628" />



  <path
   d="m 43.232034,25.009491 v 16.288823 c 0,1.075676 -0.870787,1.997686 -1.997689,1.997686 H 8.707874 c -1.075678,0 -1.997689,-0.870787 -1.997689,-1.997686 V 25.009491 c 0,-1.075678 0.870788,-1.997686 1.997689,-1.997686 1.075679,0 1.997689,0.870785 1.997689,1.997686 V 39.300628 H 39.339102 V 25.009491 c 0,-1.075678 0.870787,-1.997686 1.997689,-1.997686 1.024456,0 1.895243,0.922008 1.895243,1.997686 z M 49.429992,23.626477 26.379736,0.57625575 c -0.768341,-0.768341 -1.997688,-0.768341 -2.76603,0 L 0.563451,23.626477 C 0.204891,23.985036 0,24.497264 0,25.009491 c 0,0.512227 0.204891,1.024454 0.563451,1.383013 0.409782,0.358559 0.870787,0.56345 1.434238,0.56345 0.563451,0 1.024456,-0.204891 1.383015,-0.56345 L 24.996721,4.7765178 46.612738,26.392504 c 0.768342,0.768341 2.048912,0.768341 2.766031,0 0.819564,-0.768341 0.819564,-1.997686 0.05122,-2.766027 z"
   id="path1622"
   inkscape:connector-curvature="0"
   style="stroke-width:0.512228" />



</svg>
