<?xml version="1.0" encoding="UTF-8" standalone="no"?>
<svg
   xmlns:dc="http://purl.org/dc/elements/1.1/"
   xmlns:cc="http://creativecommons.org/ns#"
   xmlns:rdf="http://www.w3.org/1999/02/22-rdf-syntax-ns#"
   xmlns:svg="http://www.w3.org/2000/svg"
   xmlns="http://www.w3.org/2000/svg"
   xmlns:sodipodi="http://sodipodi.sourceforge.net/DTD/sodipodi-0.dtd"
   xmlns:inkscape="http://www.inkscape.org/namespaces/inkscape"
   inkscape:version="1.0beta1 (32d4812, 2019-09-19)"
   height="50"
   width="50"
   sodipodi:docname="stream-construction-and-demolition.svg"
   id="svg2269"
   xml:space="preserve"
   viewBox="0 0 50 50"
   y="0px"
   x="0px"
   version="1.1">
  <metadata
   id="metadata2275">
    <rdf:RDF>
      <cc:Work
   rdf:about="">
        <dc:format>image/svg+xml</dc:format>




        <dc:type
   rdf:resource="http://purl.org/dc/dcmitype/StillImage" />




        <dc:title />




      </cc:Work>




    </rdf:RDF>




  </metadata>




  <defs
   id="defs2273" />




  <sodipodi:namedview
   inkscape:current-layer="svg2269"
   inkscape:window-maximized="0"
   inkscape:window-y="216"
   inkscape:window-x="2203"
   inkscape:cy="154.66148"
   inkscape:cx="-169.34797"
   inkscape:zoom="1.6160434"
   showgrid="false"
   id="namedview2271"
   inkscape:window-height="847"
   inkscape:window-width="1440"
   inkscape:pageshadow="2"
   inkscape:pageopacity="0"
   guidetolerance="10"
   gridtolerance="10"
   objecttolerance="10"
   borderopacity="1"
   inkscape:document-rotation="0"
   bordercolor="#666666"
   pagecolor="#ffffff" />




  
<g
   id="g2912"
   transform="matrix(0.05767013,0,0,0.05747126,-4.5271052,-4.425287)">
  
  
  
  
  
  
  
  
  
  
  
  
  
  
  
  
  
  
  
  
  
  
  
  
  
  
  
  <path
   d="m 836,268 h 20 v 141 h -20 z m 64.3,193 H 791.7 L 846,393 Z m -67,-20 h 25.5 L 846,425 Z m 78.2,84 h -131 c -7.7,0 -14,-6.3 -14,-14 v -56 c 0,-7.7 6.3,-14 14,-14 h 131.1 c 7.7,0 14,6.3 14,14 v 56 c -0.1,7.7 -6.4,14 -14.1,14 z m -125,-20 h 119 v -44 h -119 z m -547.66785,-231.62691 16.888,-10.716 96.22969,151.65424 -16.888,10.716 z m 0.073,141.00279 96.26528,-151.73868 16.888,10.714 -96.26528,151.73868 z m -0.0769,10.10645 16.888,-10.716 96.22968,151.65424 -16.888,10.716 z m 0.0645,140.97572 96.21172,-151.65424 16.888,10.714 -96.21172,151.65424 z m -0.0899,11.09 16.886,-10.716 96.22968,151.63629 -16.886,10.716 z m 0.0332,140.9364 96.21172,-151.65424 16.888,10.714 -96.21172,151.65424 z m 6e-5,10.21145 16.888,-10.716 96.22968,151.65424 -16.888,10.716 z m -0.01,140.88931 96.26528,-151.73867 16.888,10.714 -96.26528,151.73867 z m 102.53138,-771.8171 4.338,-19.524 504.01205,111.98547 -4.338,19.524 z M 193.5,372 h -101 c -7.7,0 -14,-6.3 -14,-14 V 173 c 0,-7.7 6.3,-14 14,-14 h 101.1 c 7.7,0 14,6.3 14,14 v 185 c -0.1,7.7 -6.4,14 -14.1,14 z m -95,-20 h 89 V 179 h -89 z m 417,-94 h 40 v 20 h -40 z m 402,20 H 602.3 v -20 h 295.2 v -7.7 L 844.1,209 H 207.5 v 49 h 260 v 20 h -280 v -89 h 663.4 l 60.9,47.1 c 3.6,2.8 5.7,7 5.7,11.6 z m -17.9,-26.1 c 0,0 0,0 0,0 z M 413.5,947 h -236 v -53.2 c 0,-16.4 13.4,-29.8 29.8,-29.8 h 176.5 c 16.4,0 29.8,13.4 29.8,29.8 V 947 Z M 197.4,927 h 196 v -33.2 c 0,-5.4 -4.4,-9.8 -9.8,-9.8 H 207.2 c -5.4,0 -9.8,4.4 -9.8,9.8 V 927 Z M 353.6,884 H 237.3 V 258 h 116.3 z m -96.3,-20 h 76.3 V 278 H 257.3 Z M 353.6,209 H 229.3 L 307.5,83.9 c 2.7,-4.3 7.3,-6.9 12.4,-6.9 h 33.7 z m -88.2,-20 h 68.2 V 97 h -10.7 z m 590.1,435 h 20 v 54 h -20 z m -59,-30 h 20 v 84 h -20 z M 721,624 h 20 v 54 H 721 Z M 586.5,526 h 20 v 60 h -20 z m -59,-30 h 20 v 90 h -20 z m 348,371 h -79 V 755 h 79 z m -59,-20 h 39 v -72 h -39 z M 741,867 H 662 V 755 h 79 z m -59,-20 h 39 V 775 H 682 Z M 606.5,688 h -79 V 576 h 79 z m -59,-20 h 39 v -72 h -39 z m 59,199 h -79 V 755 h 79 z m -59,-20 h 39 v -72 h -39 z m 398,100 h -488 V 576 H 682 v 92 h 263.5 z m -468,-20 h 448 V 688 H 662 V 596 H 477.5 Z"
   id="rect2910"
   inkscape:connector-curvature="0" />



</g>



</svg>
